<?xml version="1.0" encoding="UTF-8" standalone="no"?>
<!-- Generator: Adobe Illustrator 21.1.0, SVG Export Plug-In . SVG Version: 6.00 Build 0)  -->

<svg
   xmlns:dc="http://purl.org/dc/elements/1.1/"
   xmlns:cc="http://creativecommons.org/ns#"
   xmlns:rdf="http://www.w3.org/1999/02/22-rdf-syntax-ns#"
   xmlns:svg="http://www.w3.org/2000/svg"
   xmlns="http://www.w3.org/2000/svg"
   xmlns:sodipodi="http://sodipodi.sourceforge.net/DTD/sodipodi-0.dtd"
   xmlns:inkscape="http://www.inkscape.org/namespaces/inkscape"
   version="1.1"
   id="Layer_1"
   x="0px"
   y="0px"
   viewBox="0 0 595.3 126.1"
   style="enable-background:new 0 0 595.3 126.1;"
   xml:space="preserve"
   inkscape:version="0.91 r13725"
   sodipodi:docname="logo-editedsvg.svg"><metadata
     id="metadata4922"><rdf:RDF><cc:Work
         rdf:about=""><dc:format>image/svg+xml</dc:format><dc:type
           rdf:resource="http://purl.org/dc/dcmitype/StillImage" /><dc:title></dc:title></cc:Work></rdf:RDF></metadata><defs
     id="defs4920" /><sodipodi:namedview
     pagecolor="#ffffff"
     bordercolor="#666666"
     borderopacity="1"
     objecttolerance="10"
     gridtolerance="10"
     guidetolerance="10"
     inkscape:pageopacity="0"
     inkscape:pageshadow="2"
     inkscape:window-width="1920"
     inkscape:window-height="1029"
     id="namedview4918"
     showgrid="false"
     inkscape:zoom="2.1871326"
     inkscape:cx="265.1874"
     inkscape:cy="8.1836409"
     inkscape:window-x="0"
     inkscape:window-y="28"
     inkscape:window-maximized="1"
     inkscape:current-layer="text4916" /><style
     type="text/css"
     id="style4668">
	.st0{fill:#F9BFC5;}
	.st1{fill:#FFFFFF;}
	.st2{font-family:'Avenir-Roman';}
	.st3{font-size:66px;}
	.st4{letter-spacing:2;}
</style><g
     id="g4672"><g
       id="g4674"><g
         id="g4676"><g
           id="g4678"><path
             class="st0"
             d="M236.7,23.8c-1.6-2.6-0.4-6.3-0.4-6.3s3.9,0.6,5.6,3.2c1.6,2.6,0.4,6.3,0.4,6.3S238.3,26.4,236.7,23.8z"
             id="path4680" /></g><g
           id="g4682"><path
             class="st0"
             d="M225.7,23.3c-0.6-2.7,1.5-5.5,1.5-5.5s3.1,1.6,3.8,4.3c0.6,2.7-1.5,5.5-1.5,5.5S226.3,26,225.7,23.3z"
             id="path4684" /></g><g
           id="g4686"><path
             class="st0"
             d="M258.3,36.7c-2.4,3-7.2,3.1-7.2,3.1s-1-4.7,1.4-7.7c2.4-3,7.2-3.1,7.2-3.1S260.6,33.7,258.3,36.7z"
             id="path4688" /></g><g
           id="g4690"><path
             class="st0"
             d="M248.1,52c-1.9-3.3-0.2-7.8-0.2-7.8s4.8,0.8,6.7,4.1c1.9,3.3,0.2,7.8,0.2,7.8S250,55.3,248.1,52z"
             id="path4692" /></g><g
           id="g4694"><path
             class="st0"
             d="M262,50.7c0.7-3,4.2-4.8,4.2-4.8s2.4,3.1,1.7,6.1c-0.7,3-4.2,4.8-4.2,4.8S261.4,53.7,262,50.7z"
             id="path4696" /></g><g
           id="g4698"><path
             class="st0"
             d="M241.3,58.1c-2.9-1.9-3.5-6.2-3.5-6.2s4.2-1.3,7.1,0.6c2.9,1.9,3.5,6.2,3.5,6.2S244.2,60,241.3,58.1z"
             id="path4700" /></g><g
           id="g4702"><path
             class="st0"
             d="M257.5,61.8c-2.3,1.1-5.2-0.1-5.2-0.1s0.7-3.1,3-4.2c2.3-1.1,5.2,0.1,5.2,0.1S259.8,60.7,257.5,61.8z"
             id="path4704" /></g><g
           id="g4706"><path
             class="st0"
             d="M267.5,71c-2.2-1.2-2.7-4.3-2.7-4.3s3-1.1,5.2,0.2c2.2,1.2,2.7,4.3,2.7,4.3S269.7,72.2,267.5,71z"
             id="path4708" /></g><g
           id="g4710"><path
             class="st0"
             d="M268.5,78.8c-2.6,0.9-5.6-0.9-5.6-0.9s1.2-3.2,3.8-4.1c2.6-0.9,5.6,0.9,5.6,0.9S271.1,77.9,268.5,78.8z"
             id="path4712" /></g><g
           id="g4714"><path
             class="st0"
             d="M244.8,68.5c-0.5-2.4,1.5-4.9,1.5-4.9s2.8,1.5,3.3,4c0.5,2.4-1.5,4.9-1.5,4.9S245.3,71,244.8,68.5z"
             id="path4716" /></g><g
           id="g4718"><path
             class="st0"
             d="M247.3,24.2c2.6-1.3,6,0.2,6,0.2s-0.9,3.6-3.5,4.8c-2.6,1.3-6-0.2-6-0.2S244.7,25.5,247.3,24.2z"
             id="path4720" /></g><g
           id="g4722"><path
             class="st0"
             d="M271.2,57.3c2.4,0.8,3.5,3.8,3.5,3.8s-2.8,1.6-5.1,0.8c-2.4-0.8-3.5-3.8-3.5-3.8S268.8,56.4,271.2,57.3z"
             id="path4724" /></g><g
           id="g4726"><path
             class="st0"
             d="M222.2,52.5c1.9-2.5,5.9-2.6,5.9-2.6s0.9,3.8-1,6.3c-1.9,2.5-5.9,2.6-5.9,2.6S220.3,54.9,222.2,52.5z"
             id="path4728" /></g><g
           id="g4730"><path
             class="st0"
             d="M219,74.3c2.8-0.5,5.5,1.7,5.5,1.7s-1.7,3-4.5,3.5c-2.8,0.5-5.5-1.7-5.5-1.7S216.3,74.8,219,74.3z"
             id="path4732" /></g><g
           id="g4734"><path
             class="st0"
             d="M227.3,81.2c2.1-1.9,5.6-1.4,5.6-1.4s0.2,3.5-1.9,5.4c-2.1,1.9-5.6,1.4-5.6,1.4S225.2,83,227.3,81.2z"
             id="path4736" /></g><g
           id="g4738"><path
             class="st0"
             d="M240.3,75.3c0-2.8,2.8-5,2.8-5s2.7,2.3,2.7,5c0,2.8-2.8,5-2.8,5S240.2,78.1,240.3,75.3z"
             id="path4740" /></g><g
           id="g4742"><path
             class="st0"
             d="M229.7,68.5c1.9-1.1,4.5-0.1,4.5-0.1s-0.5,2.7-2.4,3.8c-1.9,1.1-4.5,0.1-4.5,0.1S227.7,69.6,229.7,68.5z"
             id="path4744" /></g><g
           id="g4746"><path
             class="st0"
             d="M240.4,47.3c-2.2-1.1-3-4-3-4s2.8-1.3,5.1-0.2c2.2,1.1,3,4,3,4S242.7,48.3,240.4,47.3z"
             id="path4748" /></g><g
           id="g4750"><path
             class="st0"
             d="M266.5,45c-2.2-1-2.9-3.9-2.9-3.9s2.8-1.2,4.9-0.2c2.2,1,2.9,3.9,2.9,3.9S268.7,46,266.5,45z"
             id="path4752" /></g><g
           id="g4754"><path
             class="st0"
             d="M264.2,84.5c-0.4-1.9,1.1-3.8,1.1-3.8s2.2,1.1,2.6,3c0.4,1.9-1.1,3.8-1.1,3.8S264.6,86.3,264.2,84.5z"
             id="path4756" /></g><g
           id="g4758"><path
             class="st0"
             d="M236.4,88.1c0.8-2.6,4.1-4,4.1-4s1.9,2.9,1.1,5.6c-0.8,2.6-4.1,4-4.1,4S235.6,90.7,236.4,88.1z"
             id="path4760" /></g><g
           id="g4762"><path
             class="st0"
             d="M256.7,86.4c-0.9-2.8,1.1-6,1.1-6s3.5,1.4,4.5,4.3c0.9,2.8-1.1,6-1.1,6S257.6,89.2,256.7,86.4z"
             id="path4764" /></g><g
           id="g4766"><path
             class="st0"
             d="M252.7,91.2c2.7-0.8,5.6,1.2,5.6,1.2s-1.4,3.2-4.1,4c-2.7,0.8-5.6-1.2-5.6-1.2S250,92,252.7,91.2z"
             id="path4768" /></g><g
           id="g4770"><path
             class="st0"
             d="M245,95.7c3.4,1.4,4.8,5.7,4.8,5.7s-4.1,2.1-7.5,0.7c-3.4-1.4-4.8-5.7-4.8-5.7S241.6,94.3,245,95.7z"
             id="path4772" /></g><g
           id="g4774"><path
             class="st0"
             d="M223.6,90.5c2.8-0.4,5.4,1.9,5.4,1.9s-1.8,3-4.6,3.4c-2.8,0.4-5.4-1.9-5.4-1.9S220.8,90.9,223.6,90.5z"
             id="path4776" /></g><g
           id="g4778"><path
             class="st0"
             d="M235.4,99.9c0.6,2.7-1.5,5.5-1.5,5.5s-3.1-1.6-3.8-4.3c-0.6-2.7,1.5-5.5,1.5-5.5S234.7,97.2,235.4,99.9z"
             id="path4780" /></g><g
           id="g4782"><path
             class="st0"
             d="M247.6,85.7c2.7-0.8,5.6,1.2,5.6,1.2s-1.4,3.2-4.1,4c-2.7,0.8-5.6-1.2-5.6-1.2S244.9,86.4,247.6,85.7z"
             id="path4784" /></g><g
           id="g4786"><path
             class="st0"
             d="M255,73.2c-1.9-3.3-0.2-7.8-0.2-7.8s4.8,0.8,6.7,4.1c1.9,3.3,0.2,7.8,0.2,7.8S256.9,76.5,255,73.2z"
             id="path4788" /></g><g
           id="g4790"><path
             class="st0"
             d="M205.8,83.7c3.4-0.1,6.3,3.1,6.3,3.1s-2.7,3.4-6.1,3.5c-3.4,0.1-6.3-3.1-6.3-3.1S202.3,83.8,205.8,83.7z"
             id="path4792" /></g><g
           id="g4794"><path
             class="st0"
             d="M194.5,82.3c1.8-1.9,5.2-1.7,5.2-1.7s0.4,3.3-1.4,5.2c-1.8,1.9-5.2,1.7-5.2,1.7S192.7,84.2,194.5,82.3z"
             id="path4796" /></g><g
           id="g4798"><path
             class="st0"
             d="M210.8,72.8c1.9,3.3,0.2,7.8,0.2,7.8s-4.8-0.8-6.7-4.1c-1.9-3.3-0.2-7.8-0.2-7.8S208.8,69.5,210.8,72.8z"
             id="path4800" /></g><g
           id="g4802"><path
             class="st0"
             d="M199,72.5c-0.7,3-4.2,4.8-4.2,4.8s-2.4-3.1-1.7-6.1c0.7-3,4.2-4.8,4.2-4.8S199.7,69.5,199,72.5z"
             id="path4804" /></g><g
           id="g4806"><path
             class="st0"
             d="M219.7,65.1c2.9,1.9,3.5,6.2,3.5,6.2s-4.2,1.3-7.1-0.6c-2.9-1.9-3.5-6.2-3.5-6.2S216.8,63.3,219.7,65.1z"
             id="path4808" /></g><g
           id="g4810"><path
             class="st0"
             d="M203.5,61.5c2.3-1.1,5.2,0.1,5.2,0.1s-0.7,3.1-3,4.2c-2.3,1.1-5.2-0.1-5.2-0.1S201.2,62.6,203.5,61.5z"
             id="path4812" /></g><g
           id="g4814"><path
             class="st0"
             d="M193.5,52.3c2.2,1.2,2.7,4.3,2.7,4.3s-3,1.1-5.2-0.2c-2.2-1.2-2.7-4.3-2.7-4.3S191.3,51,193.5,52.3z"
             id="path4816" /></g><g
           id="g4818"><path
             class="st0"
             d="M216.2,54.7c0.5,2.4-1.5,4.9-1.5,4.9s-2.8-1.5-3.3-4c-0.5-2.4,1.5-4.9,1.5-4.9S215.7,52.3,216.2,54.7z"
             id="path4820" /></g><g
           id="g4822"><path
             class="st0"
             d="M213.7,99c-2.6,1.3-6-0.2-6-0.2s0.9-3.6,3.5-4.8c2.6-1.3,6,0.2,6,0.2S216.3,97.7,213.7,99z"
             id="path4824" /></g><g
           id="g4826"><path
             class="st0"
             d="M203.4,94.9c-2,0.1-3.6-2.1-3.6-2.1s1.5-2.2,3.5-2.3c2-0.1,3.6,2.1,3.6,2.1S205.4,94.9,203.4,94.9z"
             id="path4828" /></g><g
           id="g4830"><path
             class="st0"
             d="M189.8,66c-2.4-0.8-3.5-3.8-3.5-3.8s2.8-1.6,5.1-0.8s3.5,3.8,3.5,3.8S192.2,66.8,189.8,66z"
             id="path4832" /></g><g
           id="g4834"><path
             class="st0"
             d="M230.5,66.4c-3.1,0.1-5.8-2.8-5.8-2.8s2.4-3.1,5.6-3.2c3.1-0.1,5.8,2.8,5.8,2.8S233.6,66.3,230.5,66.4z"
             id="path4836" /></g><g
           id="g4838"><path
             class="st0"
             d="M227.7,44.6c-2.7-0.5-4.3-3.5-4.3-3.5s2.7-2.1,5.4-1.6c2.7,0.5,4.3,3.5,4.3,3.5S230.4,45.1,227.7,44.6z"
             id="path4840" /></g><g
           id="g4842"><path
             class="st0"
             d="M224.4,99.5c1.6,2.6,0.4,6.3,0.4,6.3s-3.9-0.6-5.6-3.2c-1.6-2.6-0.4-6.3-0.4-6.3S222.7,96.9,224.4,99.5z"
             id="path4844" /></g><g
           id="g4846"><path
             class="st0"
             d="M223.2,49.1c-1.5,2.4-5,2.9-5,2.9s-1.1-3.3,0.3-5.7c1.5-2.4,5-2.9,5-2.9S224.6,46.8,223.2,49.1z"
             id="path4848" /></g><g
           id="g4850"><path
             class="st0"
             d="M224.6,35.2c-0.8,2.6-4.1,4-4.1,4s-1.9-2.9-1.1-5.6c0.8-2.6,4.1-4,4.1-4S225.4,32.5,224.6,35.2z"
             id="path4852" /></g><g
           id="g4854"><path
             class="st0"
             d="M193.6,49.4c-2.2,1.1-5,0-5,0s0.6-3,2.8-4.1c2.2-1.1,5,0,5,0S195.8,48.3,193.6,49.4z"
             id="path4856" /></g><g
           id="g4858"><path
             class="st0"
             d="M231.9,58c-1.7-0.8-2.3-3.2-2.3-3.2s2.2-1,4-0.1c1.7,0.8,2.3,3.2,2.3,3.2S233.6,58.8,231.9,58z"
             id="path4860" /></g><g
           id="g4862"><path
             class="st0"
             d="M209.8,29.1c-0.1,2.8-2.9,4.9-2.9,4.9s-2.7-2.3-2.6-5.1c0.1-2.8,2.9-4.9,2.9-4.9S209.8,26.3,209.8,29.1z"
             id="path4864" /></g><g
           id="g4866"><path
             class="st0"
             d="M200.8,35.2c2.7,1.9,3,6,3,6s-4,1-6.7-0.8c-2.7-1.9-3-6-3-6S198.2,33.4,200.8,35.2z"
             id="path4868" /></g><g
           id="g4870"><path
             class="st0"
             d="M220.8,26.7c-1.3,2.4-4.8,3.2-4.8,3.2s-1.3-3.2,0-5.7c1.3-2.4,4.8-3.2,4.8-3.2S222.1,24.3,220.8,26.7z"
             id="path4872" /></g><g
           id="g4874"><path
             class="st0"
             d="M237.5,32.8c-2.8,0.4-5.4-1.9-5.4-1.9s1.8-3,4.6-3.4c2.8-0.4,5.4,1.9,5.4,1.9S240.2,32.4,237.5,32.8z"
             id="path4876" /></g><g
           id="g4878"><path
             class="st0"
             d="M213.4,37.6c-2.7,0.8-5.6-1.2-5.6-1.2s1.4-3.2,4.1-4c2.7-0.8,5.6,1.2,5.6,1.2S216.1,36.8,213.4,37.6z"
             id="path4880" /></g><g
           id="g4882"><path
             class="st0"
             d="M206.1,50c1.9,3.3,0.2,7.8,0.2,7.8s-4.8-0.8-6.7-4.1c-1.9-3.3-0.2-7.8-0.2-7.8S204.1,46.7,206.1,50z"
             id="path4884" /></g><g
           id="g4886"><path
             class="st0"
             d="M275.1,63.9c0-0.1-0.1-0.3-0.1-0.4c0-0.2-0.2-0.3-0.3-0.2c-11.5,2.4-24.1,1.6-35-3c-0.2-0.1-0.3,0-0.4,0.2      c0,0.1-0.1,0.2-0.1,0.3c-2.4-5.5-3.8-11.3-3.7-17.3c0-0.1-0.1-0.3-0.3-0.3c-0.1,0-0.3,0-0.4,0c-0.1,0-0.3,0.1-0.3,0.3      c-0.1,13.6,7,26.5,16.5,36c0,0,0,0,0.1,0c0.1,0.1,0.2,0.1,0.4,0c0.1-0.1,0.2-0.2,0.3-0.3c0.1-0.1,0.2-0.3,0-0.4      c-5-5-9.3-10.9-12.3-17.4c5.4,2.3,11.2,3.5,17,4.1c6.2,0.5,12.3,0.2,18.4-1.1C275,64.2,275.1,64.1,275.1,63.9z"
             id="path4888" /><path
             class="st0"
             d="M259.9,63.6c-0.1,0.1,0,0.3,0.1,0.4c0.1,0.1,0.2,0.1,0.3,0.2c0.1,0,0.1,0,0.1,0c0.1,0,0.2,0,0.3-0.1      c2.9-5.4,7.6-9.4,13.4-11.4c0.1-0.1,0.3-0.2,0.2-0.4c0-0.1-0.1-0.2-0.1-0.4c0-0.1-0.2-0.2-0.4-0.2C267.9,53.8,263,58,259.9,63.6      z"
             id="path4890" /><path
             class="st0"
             d="M242.8,37.2C242.9,37.2,242.9,37.2,242.8,37.2c0.2,0,0.4,0,0.5,0c0.2,0,0.3-0.2,0.2-0.3      c-0.7-5.9,0.2-11.7,2.7-17.1c0.1-0.2,0-0.3-0.2-0.4c-0.1-0.1-0.2-0.1-0.4-0.2c-0.2-0.1-0.3,0-0.4,0.2      c-2.5,5.6-3.4,11.6-2.7,17.7C242.6,37.1,242.7,37.2,242.8,37.2z"
             id="path4892" /><path
             class="st0"
             d="M270.1,79.7c-14.1-0.9-29.4-0.7-41.1,8.1c-0.1,0.1-0.1,0.3,0,0.4c0.1,0.1,0.2,0.2,0.3,0.3      c0.1,0.1,0.2,0.1,0.3,0.1c0,0,0.1,0,0.1,0c6.4-4.8,13.8-6.9,21.5-7.8c1.9,5.7,5.4,10.1,10.7,13c0,0,0,0,0.1,0      c0.1,0.1,0.3,0,0.3-0.1c0.1-0.1,0.1-0.2,0.2-0.3c0.1-0.1,0.1-0.3-0.1-0.4c-5-2.8-8.4-7-10.2-12.3c5.9-0.6,12-0.4,17.9,0      c0.2,0,0.3-0.1,0.3-0.3c0-0.1,0-0.3,0-0.4C270.4,79.9,270.3,79.7,270.1,79.7z"
             id="path4894" /><path
             class="st0"
             d="M224.2,85.8c-0.1,0-0.2-0.1-0.3-0.1c-0.1-0.1-0.3-0.1-0.4,0.1c-0.1,0.1-0.2,0.2-0.3,0.3      c-0.1,0.1-0.1,0.3,0.1,0.4c2.8,1.5,5.5,3.5,7.9,5.9c-2.7,4.1-4.2,8.7-4.4,13.6c0,0,0,0.1,0,0.1c0,0.1,0.1,0.2,0.3,0.2      c0.1,0,0.3,0,0.4,0c0.2,0,0.3-0.1,0.3-0.3c0.1-4.6,1.5-9,4.1-12.9c3.1,3.3,5.6,7.3,6.9,11.4c0,0.1,0.2,0.3,0.3,0.2      c0.1,0,0.3-0.1,0.4-0.1c0.1,0,0.3-0.2,0.2-0.3C237.4,96.5,231.2,89.7,224.2,85.8z M239.4,104.3L239.4,104.3      C239.4,104.3,239.4,104.3,239.4,104.3C239.4,104.3,239.4,104.3,239.4,104.3z"
             id="path4896" /><path
             class="st0"
             d="M225.6,79.8c0,0.1,0.1,0.3,0.3,0.3c0.1,0,0.3,0,0.4,0c0.1,0,0.3-0.1,0.3-0.3c0.1-13.6-7-26.5-16.5-36      c0,0,0,0-0.1,0c-0.1-0.1-0.2-0.1-0.4,0c-0.1,0.1-0.2,0.2-0.3,0.3c-0.1,0.1-0.2,0.3,0,0.4c5,5,9.3,10.9,12.3,17.4      c-5.4-2.3-11.2-3.5-17-4.1c-6.2-0.5-12.3-0.2-18.4,1.1c-0.2,0-0.3,0.2-0.2,0.3c0,0.1,0.1,0.3,0.1,0.4c0,0.2,0.2,0.3,0.3,0.2      c4.1-0.9,8.4-1.3,12.7-1.3c-2.1,5.6-6.1,10.2-11.4,13c-0.1,0.1-0.2,0.2-0.1,0.4c0.1,0.1,0.1,0.2,0.2,0.3      c0.1,0.1,0.2,0.2,0.4,0.1c5.6-3,9.9-7.9,12-13.9c0,0,0,0,0,0c7.3,0.1,14.6,1.5,21.2,4.3c0.2,0.1,0.3,0,0.4-0.2      c0-0.1,0.1-0.2,0.1-0.3C224.3,67.9,225.6,73.8,225.6,79.8z"
             id="path4898" /><path
             class="st0"
             d="M218.2,86C218.2,86,218.1,86,218.2,86c-0.2,0-0.4,0-0.5,0c-0.2,0-0.3,0.2-0.2,0.3      c0.7,5.9-0.2,11.7-2.7,17.1c-0.1,0.2,0,0.3,0.2,0.4c0.1,0.1,0.2,0.1,0.4,0.2c0.2,0.1,0.3,0,0.4-0.2c2.5-5.6,3.4-11.6,2.7-17.7      C218.4,86.1,218.3,86.1,218.2,86z"
             id="path4900" /><path
             class="st0"
             d="M190.9,43.5c14.1,0.9,29.4,0.7,41.1-8.1c0.1-0.1,0.1-0.3,0-0.4c-0.1-0.1-0.2-0.2-0.3-0.3      c-0.1-0.1-0.2-0.1-0.3-0.1c0,0-0.1,0-0.1,0c-6.4,4.8-13.8,6.9-21.5,7.8c-1.9-5.7-5.4-10.1-10.7-13c0,0,0,0-0.1,0      c-0.1-0.1-0.3,0-0.3,0.1c-0.1,0.1-0.1,0.2-0.2,0.3c-0.1,0.1-0.1,0.3,0.1,0.4c5,2.8,8.4,7,10.2,12.3c-5.9,0.6-12,0.4-17.9,0      c-0.2,0-0.3,0.1-0.3,0.3c0,0.1,0,0.3,0,0.4C190.6,43.4,190.7,43.5,190.9,43.5z"
             id="path4902" /><path
             class="st0"
             d="M230.6,33c3.5,3.2,7.5,5.6,12.2,6.7c4.5,1.1,9.3,1.3,13.9,1c4.3-0.2,8.6-0.8,12.8-1.6      c0.2,0,0.3-0.2,0.2-0.4c-0.1-0.1-0.1-0.2-0.2-0.4c0,0,0,0,0-0.1c-0.1-0.1-0.1-0.1-0.3-0.1c-4.4,0.9-9,1.5-13.5,1.6      c-5.8,0.2-12-0.1-17.3-2.6c-3.1-1.5-6.1-3.6-8.7-6.3c0,0,0,0,0,0c2.8-4.1,4.2-8.7,4.4-13.6c0,0,0-0.1,0-0.1      c0-0.1-0.1-0.2-0.3-0.2c-0.1,0-0.3,0-0.4,0c-0.2,0-0.3,0.1-0.3,0.3c-0.1,4.7-1.5,9-4.1,12.9c-3.1-3.4-5.6-7.4-6.9-11.5      c0-0.1-0.2-0.3-0.3-0.2c-0.1,0-0.3,0.1-0.4,0.1c-0.1,0-0.3,0.2-0.2,0.3C222.8,24.3,226.5,29.3,230.6,33z"
             id="path4904" /><path
             class="st0"
             d="M219.2,83.7c0-0.1-0.1-0.2-0.2-0.3c-5.9-2.4-12.3-3.2-18.6-3.7c-3.7-0.3-7.3-0.3-10.9,0.5      c-0.1,0-0.3,0.2-0.2,0.3c0,0.1,0.1,0.3,0.1,0.4c0,0.1,0.2,0.3,0.3,0.2c4.9-1.1,9.8-0.7,14.7-0.1c4.5,0.6,9,1.3,13.3,2.9      c-5.3,3.4-10,7.5-13.1,13c-0.1,0.1-0.1,0.3,0.1,0.4c0.1,0.1,0.2,0.1,0.3,0.2c0.1,0.1,0.3,0.1,0.4-0.1c3.1-5.7,8.2-10,13.7-13.3      C219.4,84.1,219.4,83.8,219.2,83.7z"
             id="path4906" /></g><g
           id="g4908"><path
             class="st0"
             d="M239.1,62.6c-5,3.2-6.2,8.9-6.7,14.4c-0.1,0.7,1.1,0.8,1.2,0.1c0.4-5,1.4-10.6,6-13.5      C240.3,63.2,239.8,62.2,239.1,62.6L239.1,62.6z"
             id="path4910" /></g><g
           id="g4912"><path
             class="st0"
             d="M253.1,40.8c1.6,3.7,5.4,5.1,9.1,6c0.5,0.1,0.8-0.6,0.3-0.7c-3.5-0.9-7.1-2.1-8.6-5.6      C253.6,40,252.9,40.4,253.1,40.8L253.1,40.8z"
             id="path4914" /></g></g></g></g><g
     style="font-size:66px;font-family:Avenir-Roman;letter-spacing:12.1299572px;fill:#ffffff"
     id="text4916"><path
       d="m 105.24037,86.48954 5.544,0 0,-20.988 9.372,0 c 6.6,0 15.312,-2.706 15.312,-12.936 0,-9.768 -7.788,-12.804 -16.368,-12.804 l -13.86,0 0,46.728 z m 5.544,-41.58 9.372,0 c 5.544,0 9.372,2.508 9.372,7.722 0,5.214 -3.828,7.722 -9.372,7.722 l -9.372,0 0,-15.444 z"
       style="font-style:normal;font-variant:normal;font-weight:500;font-stretch:normal;line-height:124.00000095%;font-family:Avenir;-inkscape-font-specification:'Avenir Medium';letter-spacing:12.1299572px"
       id="path4927" /><path
       d="m 156.55783,86.48954 5.544,0 0,-20.988 7.128,0 12.672,20.988 6.798,0 -13.266,-21.516 c 7.26,-1.122 11.682,-5.544 11.682,-12.342 0,-11.55 -9.57,-12.87 -18.612,-12.87 l -11.946,0 0,46.728 z m 5.544,-41.58 7.788,0 c 5.412,0 11.286,0.99 11.286,7.722 0,7.722 -7.986,7.722 -14.124,7.722 l -4.95,0 0,-15.444 z"
       style="font-style:normal;font-variant:normal;font-weight:500;font-stretch:normal;line-height:124.00000095%;font-family:Avenir;-inkscape-font-specification:'Avenir Medium';letter-spacing:12.1299572px"
       id="path4929" /><path
       d="m 230.74945,87.67754 c 14.19,0 24.42,-10.428 24.42,-24.552 0,-14.124 -10.23,-24.552 -24.42,-24.552 -14.19,0 -24.42,10.428 -24.42,24.552 0,14.124 10.23,24.552 24.42,24.552 z m 0,-5.148 c -10.956,0 -18.48,-8.646 -18.48,-19.404 0,-10.758 7.524,-19.404 18.48,-19.404 10.956,0 18.48,8.646 18.48,19.404 0,10.758 -7.524,19.404 -18.48,19.404 z"
       style="font-style:normal;font-variant:normal;font-weight:500;font-stretch:normal;line-height:124.00000095%;font-family:Avenir;-inkscape-font-specification:'Avenir Medium';letter-spacing:12.1299572px"
       id="path4931" /><path
       d="m 276.20838,86.48954 5.544,0 0,-20.988 21.78,0 0,-5.148 -21.78,0 0,-15.444 23.43,0 0,-5.148 -28.974,0 0,46.728 z"
       style="font-style:normal;font-variant:normal;font-weight:500;font-stretch:normal;line-height:124.00000095%;font-family:Avenir;-inkscape-font-specification:'Avenir Medium';letter-spacing:12.1299572px"
       id="path4933" /><path
       d="m 360.12262,39.76154 -5.544,0 0,28.116 c 0,7.524 -2.772,14.652 -12.078,14.652 -9.306,0 -12.078,-7.128 -12.078,-14.652 l 0,-28.116 -5.544,0 0,28.908 c 0,10.164 4.752,19.008 17.622,19.008 12.87,0 17.622,-8.844 17.622,-19.008 l 0,-28.908 z"
       style="font-style:normal;font-variant:normal;font-weight:500;font-stretch:normal;line-height:124.00000095%;font-family:Avenir;-inkscape-font-specification:'Avenir Medium';letter-spacing:12.1299572px"
       id="path4935" /><path
       d="m 383.61281,86.48954 5.544,0 0,-39.204 0.132,0 16.764,39.204 3.366,0 16.764,-39.204 0.132,0 0,39.204 5.544,0 0,-46.728 -8.052,0 -15.972,36.63 -0.132,0 -15.84,-36.63 -8.25,0 0,46.728 z"
       style="font-style:normal;font-variant:normal;font-weight:500;font-stretch:normal;line-height:124.00000095%;font-family:Avenir;-inkscape-font-specification:'Avenir Medium';letter-spacing:12.1299572px"
       id="path4937" /><path
       d="m 477.26928,87.67754 c 14.19,0 24.42,-10.428 24.42,-24.552 0,-14.124 -10.23,-24.552 -24.42,-24.552 -14.19,0 -24.42,10.428 -24.42,24.552 0,14.124 10.23,24.552 24.42,24.552 z m 0,-5.148 c -10.956,0 -18.48,-8.646 -18.48,-19.404 0,-10.758 7.524,-19.404 18.48,-19.404 10.956,0 18.48,8.646 18.48,19.404 0,10.758 -7.524,19.404 -18.48,19.404 z"
       style="font-style:normal;font-variant:normal;font-weight:500;font-stretch:normal;line-height:124.00000095%;font-family:Avenir;-inkscape-font-specification:'Avenir Medium';letter-spacing:12.1299572px"
       id="path4939" /></g></svg>