<svg width="21" height="19" viewBox="0 0 21 19" fill="none" xmlns="http://www.w3.org/2000/svg">
<path fill-rule="evenodd" clip-rule="evenodd" d="M16.0878 6.95786C13.3051 6.95786 11.0493 9.31688 11.0493 12.227C11.0493 13.8847 11.7828 15.3616 12.9274 16.3276C11.447 17.4674 10.3294 18.1859 10.3294 18.1859C10.3294 18.1859 0.252441 11.725 0.252441 6.51867C0.252441 3.38238 2.11181 0.246094 5.65077 0.246094C8.88984 0.246094 10.3294 3.45418 10.3294 3.45418C10.3294 3.45418 11.589 0.246094 15.0079 0.246094C18.4269 0.246094 20.3464 3.31976 20.3464 6.51867C20.3464 7.23412 20.1499 7.97034 19.8308 8.70865C18.9084 7.63629 17.5755 6.95786 16.0878 6.95786ZM16.0878 7.71065C18.4728 7.71065 20.4064 9.73255 20.4064 12.227C20.4064 14.7212 18.4728 16.7433 16.0878 16.7433C13.7026 16.7433 11.7691 14.7212 11.7691 12.227C11.7691 9.73255 13.7026 7.71065 16.0878 7.71065ZM13.9284 12.9796H15.3679V14.485H16.8076V12.9796H18.2471V11.4742H16.8076V9.96874H15.3679V11.4742H13.9284V12.9796Z" fill="#222328"/>
</svg>
