<svg width="40" height="38" viewBox="0 0 40 38" fill="none" xmlns="http://www.w3.org/2000/svg">
<g filter="url(#filter0_d)">
<path d="M15.2232 16.0183C15.2838 16.0773 15.3533 16.1264 15.4291 16.1637C15.6194 16.3022 15.8479 16.3784 16.0833 16.3817C16.2602 16.3817 16.4346 16.34 16.5925 16.2601C16.7503 16.1801 16.8871 16.0641 16.9917 15.9214L20.9164 11.9968C21.0722 11.9006 21.2042 11.7703 21.3025 11.6157C21.4007 11.4611 21.4626 11.2862 21.4835 11.1043C21.5044 10.9223 21.4838 10.738 21.4231 10.5651C21.3625 10.3923 21.2635 10.2354 21.1335 10.1064C21.0035 9.97736 20.846 9.87947 20.6727 9.82011C20.4994 9.76075 20.3149 9.74145 20.1331 9.76368C19.9513 9.7859 19.7769 9.84907 19.623 9.94842C19.4692 10.0478 19.3398 10.1807 19.2448 10.3373L17.2824 12.3359V2.06408C17.3229 1.88669 17.3228 1.70247 17.2823 1.5251C17.2418 1.34773 17.1618 1.18176 17.0483 1.03953C16.9349 0.897304 16.7908 0.782461 16.6269 0.703533C16.463 0.624604 16.2834 0.583618 16.1014 0.583618C15.9195 0.583618 15.7399 0.624604 15.5759 0.703533C15.412 0.782461 15.268 0.897304 15.1545 1.03953C15.041 1.18176 14.9611 1.34773 14.9206 1.5251C14.88 1.70247 14.88 1.88669 14.9204 2.06408V12.3723L12.8975 10.3615C12.6661 10.2245 12.3957 10.1683 12.1288 10.202C11.862 10.2356 11.6139 10.3571 11.4238 10.5472C11.2336 10.7374 11.1121 10.9855 11.0785 11.2523C11.0449 11.5192 11.101 11.7896 11.238 12.021L15.2232 16.0183Z" fill="url(#paint0_linear)"/>
<path d="M34.5557 6.75195L27.2879 7.67254C27.021 7.71474 26.7758 7.84496 26.5915 8.0425C26.4071 8.24004 26.2941 8.49355 26.2704 8.76272L24.0052 19.5797H6.85314V8.92019C6.89357 8.7428 6.89352 8.55857 6.85299 8.3812C6.81246 8.20383 6.7325 8.03787 6.61903 7.89564C6.50557 7.75341 6.36153 7.63857 6.1976 7.55964C6.03367 7.48071 5.85406 7.43973 5.67212 7.43973C5.49018 7.43973 5.31057 7.48071 5.14664 7.55964C4.98271 7.63857 4.83867 7.75341 4.72521 7.89564C4.61174 8.03787 4.53178 8.20383 4.49125 8.3812C4.45072 8.55857 4.45067 8.7428 4.4911 8.92019V20.5972C4.48693 20.6617 4.48693 20.7264 4.4911 20.791C4.4911 21.1122 4.61872 21.4203 4.84588 21.6475C5.07304 21.8747 5.38115 22.0023 5.7024 22.0023C5.77092 22.0081 5.83981 22.0081 5.90832 22.0023H25.0227C25.344 22.0023 25.6521 21.8747 25.8792 21.6475C26.1064 21.4203 26.234 21.1122 26.234 20.791L28.5113 9.88923L34.8585 9.08977C35.1136 8.99333 35.3287 8.81365 35.4689 8.57979C35.6092 8.34592 35.6664 8.07157 35.6314 7.80113C35.5964 7.53069 35.4711 7.27998 35.2759 7.08958C35.0807 6.89917 34.8269 6.78021 34.5557 6.75195Z" fill="url(#paint1_linear)"/>
<path d="M9.65121 24.2674C9.16966 24.2553 8.69546 24.3871 8.28918 24.6459C7.88289 24.9046 7.56298 25.2787 7.3703 25.7201C7.17761 26.1616 7.12091 26.6505 7.20743 27.1244C7.29396 27.5982 7.51978 28.0355 7.85605 28.3804C8.19232 28.7253 8.62377 28.9621 9.09529 29.0606C9.56681 29.1591 10.057 29.1148 10.5032 28.9334C10.9494 28.7519 11.3314 28.4416 11.6004 28.042C11.8694 27.6424 12.0131 27.1717 12.0132 26.69C12.0134 26.0578 11.7665 25.4506 11.3252 24.998C10.8839 24.5454 10.2832 24.2832 9.65121 24.2674Z" fill="url(#paint2_linear)"/>
<path d="M18.1909 24.2673C17.7118 24.2673 17.2434 24.4094 16.845 24.6756C16.4466 24.9418 16.1361 25.3202 15.9527 25.7629C15.7694 26.2055 15.7214 26.6926 15.8149 27.1626C15.9083 27.6325 16.1391 28.0642 16.4779 28.403C16.8167 28.7418 17.2484 28.9725 17.7183 29.066C18.1882 29.1595 18.6753 29.1115 19.118 28.9281C19.5607 28.7448 19.939 28.4343 20.2052 28.0359C20.4714 27.6375 20.6135 27.1691 20.6135 26.6899C20.6135 26.0474 20.3583 25.4312 19.904 24.9769C19.4496 24.5226 18.8334 24.2673 18.1909 24.2673Z" fill="url(#paint3_linear)"/>
</g>
<defs>
<filter id="filter0_d" x="0.460815" y="0.583618" width="39.1806" height="36.5289" filterUnits="userSpaceOnUse" color-interpolation-filters="sRGB">
<feFlood flood-opacity="0" result="BackgroundImageFix"/>
<feColorMatrix in="SourceAlpha" type="matrix" values="0 0 0 0 0 0 0 0 0 0 0 0 0 0 0 0 0 0 127 0"/>
<feOffset dy="4"/>
<feGaussianBlur stdDeviation="2"/>
<feColorMatrix type="matrix" values="0 0 0 0 0 0 0 0 0 0 0 0 0 0 0 0 0 0 0.25 0"/>
<feBlend mode="normal" in2="BackgroundImageFix" result="effect1_dropShadow"/>
<feBlend mode="normal" in="SourceGraphic" in2="effect1_dropShadow" result="shape"/>
</filter>
<linearGradient id="paint0_linear" x1="16.0833" y1="26.8958" x2="16.0833" y2="9.78009" gradientUnits="userSpaceOnUse">
<stop stop-color="white"/>
<stop offset="1" stop-color="white"/>
</linearGradient>
<linearGradient id="paint1_linear" x1="904.646" y1="478.428" x2="904.646" y2="262.879" gradientUnits="userSpaceOnUse">
<stop stop-color="white"/>
<stop offset="1" stop-color="white"/>
</linearGradient>
<linearGradient id="paint2_linear" x1="104.993" y1="174.081" x2="104.993" y2="105.618" gradientUnits="userSpaceOnUse">
<stop stop-color="white"/>
<stop offset="1" stop-color="white"/>
</linearGradient>
<linearGradient id="paint3_linear" x1="147.752" y1="174.082" x2="147.752" y2="105.619" gradientUnits="userSpaceOnUse">
<stop stop-color="white"/>
<stop offset="1" stop-color="white"/>
</linearGradient>
</defs>
</svg>
