<svg width="29" height="41" viewBox="0 0 29 41" fill="none" xmlns="http://www.w3.org/2000/svg">
<path d="M28.3938 16.0922C28.018 15.6417 27.8121 15.0735 27.8121 14.4868C27.8121 13.9001 28.018 13.3319 28.3938 12.8814C28.6511 12.5731 28.8304 12.2074 28.9168 11.8153C29.0031 11.4232 28.994 11.016 28.8901 10.6282C28.7862 10.2403 28.5905 9.8831 28.3197 9.58667C28.0489 9.29023 27.7107 9.06324 27.3338 8.92482C26.783 8.72273 26.3205 8.3337 26.0271 7.82557C25.7338 7.31744 25.628 6.72245 25.7284 6.14435C25.797 5.74855 25.7695 5.34206 25.6482 4.95913C25.5268 4.57619 25.3152 4.22803 25.0312 3.94399C24.7471 3.65994 24.399 3.44834 24.0161 3.327C23.6331 3.20566 23.2266 3.17815 22.8308 3.24678C22.253 3.34716 21.6583 3.24155 21.1503 2.94834C20.6424 2.65514 20.2535 2.19296 20.0514 1.64238C19.9129 1.26536 19.6859 0.927135 19.3894 0.656195C19.093 0.385254 18.7357 0.189537 18.3478 0.0855303C17.9598 -0.0184763 17.5526 -0.0277256 17.1603 0.0585616C16.7681 0.144849 16.4023 0.324145 16.0938 0.581346C15.6433 0.957192 15.0751 1.16305 14.4884 1.16305C13.9016 1.16305 13.3335 0.957192 12.883 0.581346C12.5746 0.324132 12.2089 0.144822 11.8167 0.0585271C11.4245 -0.0277676 11.0173 -0.0185175 10.6294 0.0854977C10.2416 0.189513 9.88439 0.385245 9.58801 0.656197C9.29162 0.927149 9.06471 1.26538 8.92641 1.64238C8.72396 2.19292 8.33482 2.65501 7.82676 2.94817C7.31869 3.24134 6.72389 3.34701 6.14594 3.24678C5.75014 3.17815 5.34365 3.20566 4.96071 3.327C4.57778 3.44834 4.22962 3.65994 3.94557 3.94399C3.66153 4.22803 3.44992 4.57619 3.32859 4.95913C3.20725 5.34206 3.17974 5.74855 3.24837 6.14435C3.3486 6.7223 3.24293 7.3171 2.94976 7.82517C2.6566 8.33324 2.19451 8.72238 1.64397 8.92482C1.26697 9.06313 0.928736 9.29004 0.657784 9.58642C0.386832 9.88281 0.1911 10.24 0.0870846 10.6279C-0.0169306 11.0157 -0.0261807 11.4229 0.060114 11.8151C0.146409 12.2073 0.325719 12.573 0.582933 12.8814C0.958779 13.3319 1.16464 13.9001 1.16464 14.4868C1.16464 15.0735 0.958779 15.6417 0.582933 16.0922C0.325732 16.4007 0.146436 16.7665 0.0601485 17.1587C-0.0261386 17.551 -0.0168894 17.9582 0.0871172 18.3462C0.191124 18.7341 0.386841 19.0914 0.657781 19.3878C0.928722 19.6843 1.26695 19.9114 1.64397 20.0498C2.19455 20.2519 2.65673 20.6408 2.94993 21.1487C3.24313 21.6567 3.34875 22.2514 3.24837 22.8292C3.17974 23.225 3.20725 23.6315 3.32859 24.0145C3.44992 24.3974 3.66153 24.7456 3.94557 25.0296C4.22962 25.3137 4.57778 25.5253 4.96071 25.6466C5.34365 25.7679 5.75014 25.7954 6.14594 25.7268C6.26411 25.7069 6.38357 25.6955 6.50338 25.6929L2.11543 37.5718L6.57014 35.6202L8.68503 40.0031L13.0062 28.3019C13.436 27.9863 13.9552 27.8161 14.4884 27.8161C15.0216 27.8161 15.5408 27.9863 15.9705 28.3019L20.2928 40.002L22.4066 35.6192L26.8613 37.5708L22.4744 25.6929C22.5939 25.6956 22.713 25.7069 22.8308 25.7268C23.2266 25.7954 23.6331 25.7679 24.0161 25.6466C24.399 25.5253 24.7471 25.3137 25.0312 25.0296C25.3152 24.7456 25.5268 24.3974 25.6482 24.0145C25.7695 23.6315 25.797 23.225 25.7284 22.8292C25.6279 22.2513 25.7335 21.6563 26.027 21.1483C26.3204 20.6403 26.7829 20.2515 27.3338 20.0498C27.7108 19.9112 28.0489 19.6841 28.3197 19.3876C28.5905 19.0911 28.7861 18.7338 28.89 18.3459C28.994 17.958 29.0031 17.5507 28.9168 17.1585C28.8304 16.7663 28.6511 16.4006 28.3938 16.0922ZM19.1105 15.8169L20.2013 22.178L14.4884 19.1757L8.77542 22.1791L9.86624 15.8169L5.2441 11.3109L11.6319 10.3864L14.4884 4.5985L17.3449 10.3864L23.7327 11.3109L19.1105 15.8169Z" fill="#222328"/>
</svg>
