<svg width="10" height="11" viewBox="0 0 10 11" fill="none" xmlns="http://www.w3.org/2000/svg">
<path fill-rule="evenodd" clip-rule="evenodd" d="M6.68611 6.07726H7.34233V6.73347H7.99847V7.38967H8.65469V8.04588H9.31092V8.70208H8.65469V9.35828H7.99847V10.0146H7.34233V9.35828H6.68611V8.70208H6.0298V8.04588H5.37366V7.38967H4.71744H4.06122V8.04588H3.40499V8.70208H2.74877V9.35828H2.09255V10.0146H1.4364V9.35828H0.780182V8.70208H0.123962V8.04588H0.780182V7.38967H1.4364V6.73347H2.09255V6.07726H2.74877V5.42106V4.76486H2.09255V4.10865H1.4364V3.45244H0.780182V2.79625H0.123962V2.14004H0.780182V1.48383H1.4364V0.827637H2.09255V1.48383H2.74877V2.14004H3.40499V2.79625H4.06122V3.45244H4.71744H5.37366V2.79625H6.0298V2.14004H6.68611V1.48383H7.34233V0.827637H7.99847V1.48383H8.65469V2.14004H9.31092V2.79625H8.65469V3.45244H7.99847V4.10865H7.34233V4.76486H6.68611V5.42106V6.07726Z" fill="#222328" fill-opacity="0.86"/>
</svg>
