<svg width="25" height="21" viewBox="0 0 25 21" fill="none" xmlns="http://www.w3.org/2000/svg">
<path d="M25 2.74909C24.0799 3.15681 23.0926 3.43332 22.0553 3.55677C23.1145 2.92249 23.9253 1.91645 24.3095 0.721353C23.316 1.30873 22.2193 1.73524 21.0507 1.96645C20.115 0.968207 18.784 0.346436 17.3077 0.346436C14.4754 0.346436 12.179 2.64288 12.179 5.47359C12.179 5.87506 12.2243 6.26718 12.3118 6.64214C8.05007 6.42808 4.2711 4.3863 1.74189 1.28373C1.29978 2.03986 1.04826 2.9209 1.04826 3.86138C1.04826 5.64075 1.95435 7.21076 3.32911 8.12931C2.48863 8.1012 1.69814 7.87 1.00611 7.48568V7.54973C1.00611 10.0336 2.77453 12.1067 5.11939 12.5785C4.68977 12.6941 4.23675 12.7581 3.76808 12.7581C3.43691 12.7581 3.11665 12.7253 2.80264 12.6628C3.45562 14.7015 5.34905 16.184 7.59239 16.2247C5.83802 17.5994 3.62592 18.4165 1.22327 18.4165C0.809294 18.4165 0.401532 18.3915 6.10352e-05 18.3462C2.26996 19.8037 4.96477 20.6536 7.8611 20.6536C17.2953 20.6536 22.4521 12.8394 22.4521 6.06256L22.4349 5.39863C23.4425 4.67997 24.3142 3.77703 25 2.74909Z" fill="black"/>
</svg>
