<svg width="39" height="40" viewBox="0 0 39 40" fill="none" xmlns="http://www.w3.org/2000/svg">
<path d="M0.582381 1.58236L7.21202 3.57385L11.0085 12.8489C10.923 12.9311 10.8577 13.0314 10.8179 13.1421L8.96344 18.7021C8.89417 18.8812 8.89417 19.079 8.96344 19.2581L14.1147 31.6872C13.8123 32.6338 13.7384 33.6364 13.8987 34.6158C14.0591 35.5952 14.4493 36.5246 15.0385 37.3307C15.6277 38.1367 16.3999 38.7973 17.2939 39.2603C18.188 39.7233 19.1796 39.9759 20.1902 39.9984C21.2009 40.0208 22.2031 39.8124 23.1176 39.3895C24.0321 38.9667 24.8338 38.341 25.4596 37.5619C26.0854 36.7828 26.518 35.8717 26.7233 34.9004C26.9286 33.9291 26.9009 32.9242 26.6425 31.9652L38.4182 27.0371C38.6127 26.9485 38.7644 26.7891 38.8411 26.5927C38.9178 26.3962 38.9135 26.1782 38.829 25.9848C38.7446 25.7914 38.5866 25.638 38.3888 25.557C38.1909 25.476 37.9686 25.4738 37.7692 25.551L26.0243 30.5045C25.785 30.0877 25.5 29.6979 25.1744 29.3419L36.2238 24.8535C36.2955 24.8245 36.3606 24.7819 36.4154 24.7281C36.4702 24.6743 36.5136 24.6104 36.5432 24.5401C36.5736 24.4707 36.5893 24.3958 36.5893 24.3202C36.5893 24.2446 36.5736 24.1698 36.5432 24.1004L30.8253 10.534C30.7649 10.3921 30.6497 10.2794 30.5049 10.2207C30.3601 10.162 30.1975 10.1619 30.0526 10.2206L28.8884 10.6957L24.8447 1.09207C24.8159 1.02156 24.7731 0.957393 24.7187 0.903329C24.6643 0.849265 24.5995 0.806387 24.528 0.777204C24.4565 0.748022 24.3799 0.733122 24.3024 0.733377C24.225 0.733631 24.1484 0.749034 24.0772 0.778685L13.5686 5.05483C13.497 5.0838 13.4318 5.1264 13.377 5.18019C13.3222 5.23397 13.2788 5.29788 13.2493 5.36821C13.2187 5.43851 13.2029 5.51417 13.2029 5.59061C13.2029 5.66706 13.2187 5.74271 13.2493 5.81301L17.2878 15.4166L15.9382 15.9676C15.8668 15.9964 15.8019 16.0388 15.7472 16.0922C15.6924 16.1457 15.649 16.2092 15.6193 16.2792C15.5897 16.3491 15.5744 16.4241 15.5743 16.4999C15.5742 16.5757 15.5893 16.6507 15.6188 16.7207L20.0592 27.2443C19.6107 27.2639 19.1654 27.3282 18.7302 27.4364L8.57195 2.61349C8.52616 2.50248 8.4564 2.40253 8.36747 2.32051C8.27855 2.23848 8.17257 2.17634 8.05682 2.13836L1.0666 0.0356673C0.857569 -0.0273385 0.631595 -0.0062865 0.438386 0.0941921C0.245178 0.194671 0.100561 0.366345 0.0363496 0.571449C-0.0278615 0.776553 -0.00640676 0.998285 0.0959939 1.18787C0.198395 1.37745 0.373353 1.51935 0.582381 1.58236ZM14.5628 5.9141L17.4733 4.73134L18.5963 7.39509L22.2021 5.93432L21.074 3.27058L23.9844 2.08781L27.817 11.1203L18.3696 14.9415L14.5628 5.9141ZM20.3425 28.8567C20.4816 28.8567 20.6155 28.8567 20.7495 28.8567C21.2345 28.897 21.7104 29.0094 22.1609 29.1903L22.2948 29.2459C23.0041 29.5505 23.6292 30.0166 24.1183 30.6056C24.6074 31.1945 24.9465 31.8893 25.1074 32.6324C25.1776 32.965 25.2121 33.3038 25.2104 33.6433C25.2105 34.4774 24.9879 35.297 24.5649 36.0205C24.1419 36.744 23.5331 37.3462 22.7992 37.7672C22.0654 38.1881 21.232 38.4132 20.3819 38.4199C19.5319 38.4267 18.6949 38.2149 17.9541 37.8056C17.2134 37.3964 16.5948 36.804 16.1599 36.0873C15.725 35.3706 15.489 34.5547 15.4752 33.7207C15.4615 32.8867 15.6706 32.0637 16.0817 31.3336C16.4928 30.6035 17.0916 29.9918 17.8184 29.5593C18.5803 29.1083 19.4527 28.8689 20.3425 28.8668V28.8567ZM16.9324 16.8016L21.0534 15.1386L22.64 18.8992L27.477 16.9381L25.8904 13.1775L29.9856 11.5145L35.2296 24.0043L24.2111 28.4826C23.3738 27.8692 22.3986 27.4619 21.3676 27.2948L16.9324 16.8016ZM15.114 29.8221L13.2287 25.273L15.5107 23.8982L17.1951 28.0176C16.379 28.4677 15.6696 29.0828 15.114 29.8221ZM12.6002 23.7566L10.5964 18.9498L11.8893 15.0628L14.8874 22.3869L12.6002 23.7566Z" fill="#050505"/>
</svg>
