<svg width="71" height="52" viewBox="0 0 71 52" fill="none" xmlns="http://www.w3.org/2000/svg">
<g filter="url(#filter0_d)">
<path d="M60.6621 0.052002H10.1075C8.56031 0.0589614 7.07863 0.683948 5.9858 1.79058C4.89298 2.89721 4.27772 4.39565 4.27429 5.95891V37.4053C4.27428 38.9709 4.88801 40.4727 5.98121 41.5821C7.0744 42.6916 8.55805 43.3184 10.1075 43.3254H60.6621C62.2093 43.3184 63.691 42.6935 64.7838 41.5868C65.8766 40.4802 66.4919 38.9817 66.4953 37.4185V5.95891C66.4919 4.39565 65.8766 2.89721 64.7838 1.79058C63.691 0.683948 62.2093 0.0589614 60.6621 0.052002ZM63.5852 37.4053C63.5852 37.7932 63.5096 38.1772 63.3627 38.5355C63.2158 38.8939 63.0005 39.2195 62.729 39.4937C62.4576 39.768 62.1354 39.9855 61.7807 40.1339C61.4261 40.2824 61.046 40.3588 60.6621 40.3588H10.1075C9.72097 40.364 9.33727 40.2914 8.97881 40.1452C8.62035 39.9989 8.29432 39.782 8.01976 39.5071C7.74519 39.2321 7.5276 38.9046 7.37969 38.5438C7.23178 38.1829 7.15651 37.7959 7.15828 37.4053V20.3702H63.6244L63.5852 37.4053ZM7.15828 10.5341V5.95891C7.15656 5.57168 7.23056 5.18792 7.37604 4.82967C7.52151 4.47141 7.7356 4.14573 8.00599 3.8713C8.27639 3.59687 8.59778 3.37911 8.9517 3.23053C9.30562 3.08194 9.6851 3.00545 10.0684 3.00545H60.6621C61.4373 3.00545 62.1809 3.31662 62.729 3.8705C63.2772 4.42438 63.5852 5.17561 63.5852 5.95891V10.5341H7.15828Z" fill="white"/>
</g>
<defs>
<filter id="filter0_d" x="0.274292" y="0.052002" width="70.221" height="51.2734" filterUnits="userSpaceOnUse" color-interpolation-filters="sRGB">
<feFlood flood-opacity="0" result="BackgroundImageFix"/>
<feColorMatrix in="SourceAlpha" type="matrix" values="0 0 0 0 0 0 0 0 0 0 0 0 0 0 0 0 0 0 127 0"/>
<feOffset dy="4"/>
<feGaussianBlur stdDeviation="2"/>
<feColorMatrix type="matrix" values="0 0 0 0 0 0 0 0 0 0 0 0 0 0 0 0 0 0 0.25 0"/>
<feBlend mode="normal" in2="BackgroundImageFix" result="effect1_dropShadow"/>
<feBlend mode="normal" in="SourceGraphic" in2="effect1_dropShadow" result="shape"/>
</filter>
</defs>
</svg>
