<?xml version="1.0" encoding="UTF-8" standalone="no"?>
<!-- Created with Inkscape (http://www.inkscape.org/) -->

<svg
   xmlns:dc="http://purl.org/dc/elements/1.1/"
   xmlns:cc="http://creativecommons.org/ns#"
   xmlns:rdf="http://www.w3.org/1999/02/22-rdf-syntax-ns#"
   xmlns:svg="http://www.w3.org/2000/svg"
   xmlns:sodipodi="http://sodipodi.sourceforge.net/DTD/sodipodi-0.dtd"
   xmlns:inkscape="http://www.inkscape.org/namespaces/inkscape"
   xmlns="http://www.w3.org/2000/svg"
   width="23.584755mm"
   height="23.653749mm"
   viewBox="0 0 23.584755 23.653749"
   version="1.1"
   id="svg2182"
   inkscape:version="0.92.3 (2405546, 2018-03-11)"
   sodipodi:docname="рисунок.svg">
  <defs
     id="defs2176" />
  <sodipodi:namedview
     id="base"
     pagecolor="#ffffff"
     bordercolor="#666666"
     borderopacity="1.0"
     inkscape:pageopacity="0.0"
     inkscape:pageshadow="2"
     inkscape:zoom="0.74101562"
     inkscape:cx="-263.91747"
     inkscape:cy="29.813347"
     inkscape:document-units="mm"
     inkscape:current-layer="layer1"
     showgrid="false"
     inkscape:window-width="1366"
     inkscape:window-height="713"
     inkscape:window-x="0"
     inkscape:window-y="0"
     inkscape:window-maximized="1" />
  <metadata
     id="metadata2179">
    <rdf:RDF>
      <cc:Work
         rdf:about="">
        <dc:format>image/svg+xml</dc:format>
        <dc:type
           rdf:resource="http://purl.org/dc/dcmitype/StillImage" />
        <dc:title></dc:title>
      </cc:Work>
    </rdf:RDF>
  </metadata>
  <g
     inkscape:label="Layer 1"
     inkscape:groupmode="layer"
     id="layer1"
     transform="translate(-111.74865,-133.0677)">
    <g
       id="g4672"
       transform="matrix(0.26458333,0,0,0.26458333,62.546533,128.59624)">
      <g
         id="g4674">
        <g
           id="g4676">
          <g
             id="g4678">
            <path
               class="st0"
               d="m 236.7,23.8 c -1.6,-2.6 -0.4,-6.3 -0.4,-6.3 0,0 3.9,0.6 5.6,3.2 1.6,2.6 0.4,6.3 0.4,6.3 0,0 -4,-0.6 -5.6,-3.2 z"
               id="path4680"
               inkscape:connector-curvature="0"
               style="fill:#f9bfc5" />
          </g>
          <g
             id="g4682">
            <path
               class="st0"
               d="m 225.7,23.3 c -0.6,-2.7 1.5,-5.5 1.5,-5.5 0,0 3.1,1.6 3.8,4.3 0.6,2.7 -1.5,5.5 -1.5,5.5 0,0 -3.2,-1.6 -3.8,-4.3 z"
               id="path4684"
               inkscape:connector-curvature="0"
               style="fill:#f9bfc5" />
          </g>
          <g
             id="g4686">
            <path
               class="st0"
               d="m 258.3,36.7 c -2.4,3 -7.2,3.1 -7.2,3.1 0,0 -1,-4.7 1.4,-7.7 2.4,-3 7.2,-3.1 7.2,-3.1 0,0 0.9,4.7 -1.4,7.7 z"
               id="path4688"
               inkscape:connector-curvature="0"
               style="fill:#f9bfc5" />
          </g>
          <g
             id="g4690">
            <path
               class="st0"
               d="m 248.1,52 c -1.9,-3.3 -0.2,-7.8 -0.2,-7.8 0,0 4.8,0.8 6.7,4.1 1.9,3.3 0.2,7.8 0.2,7.8 0,0 -4.8,-0.8 -6.7,-4.1 z"
               id="path4692"
               inkscape:connector-curvature="0"
               style="fill:#f9bfc5" />
          </g>
          <g
             id="g4694">
            <path
               class="st0"
               d="m 262,50.7 c 0.7,-3 4.2,-4.8 4.2,-4.8 0,0 2.4,3.1 1.7,6.1 -0.7,3 -4.2,4.8 -4.2,4.8 0,0 -2.3,-3.1 -1.7,-6.1 z"
               id="path4696"
               inkscape:connector-curvature="0"
               style="fill:#f9bfc5" />
          </g>
          <g
             id="g4698">
            <path
               class="st0"
               d="m 241.3,58.1 c -2.9,-1.9 -3.5,-6.2 -3.5,-6.2 0,0 4.2,-1.3 7.1,0.6 2.9,1.9 3.5,6.2 3.5,6.2 0,0 -4.2,1.3 -7.1,-0.6 z"
               id="path4700"
               inkscape:connector-curvature="0"
               style="fill:#f9bfc5" />
          </g>
          <g
             id="g4702">
            <path
               class="st0"
               d="m 257.5,61.8 c -2.3,1.1 -5.2,-0.1 -5.2,-0.1 0,0 0.7,-3.1 3,-4.2 2.3,-1.1 5.2,0.1 5.2,0.1 0,0 -0.7,3.1 -3,4.2 z"
               id="path4704"
               inkscape:connector-curvature="0"
               style="fill:#f9bfc5" />
          </g>
          <g
             id="g4706">
            <path
               class="st0"
               d="m 267.5,71 c -2.2,-1.2 -2.7,-4.3 -2.7,-4.3 0,0 3,-1.1 5.2,0.2 2.2,1.2 2.7,4.3 2.7,4.3 0,0 -3,1 -5.2,-0.2 z"
               id="path4708"
               inkscape:connector-curvature="0"
               style="fill:#f9bfc5" />
          </g>
          <g
             id="g4710">
            <path
               class="st0"
               d="m 268.5,78.8 c -2.6,0.9 -5.6,-0.9 -5.6,-0.9 0,0 1.2,-3.2 3.8,-4.1 2.6,-0.9 5.6,0.9 5.6,0.9 0,0 -1.2,3.2 -3.8,4.1 z"
               id="path4712"
               inkscape:connector-curvature="0"
               style="fill:#f9bfc5" />
          </g>
          <g
             id="g4714">
            <path
               class="st0"
               d="m 244.8,68.5 c -0.5,-2.4 1.5,-4.9 1.5,-4.9 0,0 2.8,1.5 3.3,4 0.5,2.4 -1.5,4.9 -1.5,4.9 0,0 -2.8,-1.5 -3.3,-4 z"
               id="path4716"
               inkscape:connector-curvature="0"
               style="fill:#f9bfc5" />
          </g>
          <g
             id="g4718">
            <path
               class="st0"
               d="m 247.3,24.2 c 2.6,-1.3 6,0.2 6,0.2 0,0 -0.9,3.6 -3.5,4.8 -2.6,1.3 -6,-0.2 -6,-0.2 0,0 0.9,-3.5 3.5,-4.8 z"
               id="path4720"
               inkscape:connector-curvature="0"
               style="fill:#f9bfc5" />
          </g>
          <g
             id="g4722">
            <path
               class="st0"
               d="m 271.2,57.3 c 2.4,0.8 3.5,3.8 3.5,3.8 0,0 -2.8,1.6 -5.1,0.8 -2.4,-0.8 -3.5,-3.8 -3.5,-3.8 0,0 2.7,-1.7 5.1,-0.8 z"
               id="path4724"
               inkscape:connector-curvature="0"
               style="fill:#f9bfc5" />
          </g>
          <g
             id="g4726">
            <path
               class="st0"
               d="m 222.2,52.5 c 1.9,-2.5 5.9,-2.6 5.9,-2.6 0,0 0.9,3.8 -1,6.3 -1.9,2.5 -5.9,2.6 -5.9,2.6 0,0 -0.9,-3.9 1,-6.3 z"
               id="path4728"
               inkscape:connector-curvature="0"
               style="fill:#f9bfc5" />
          </g>
          <g
             id="g4730">
            <path
               class="st0"
               d="m 219,74.3 c 2.8,-0.5 5.5,1.7 5.5,1.7 0,0 -1.7,3 -4.5,3.5 -2.8,0.5 -5.5,-1.7 -5.5,-1.7 0,0 1.8,-3 4.5,-3.5 z"
               id="path4732"
               inkscape:connector-curvature="0"
               style="fill:#f9bfc5" />
          </g>
          <g
             id="g4734">
            <path
               class="st0"
               d="m 227.3,81.2 c 2.1,-1.9 5.6,-1.4 5.6,-1.4 0,0 0.2,3.5 -1.9,5.4 -2.1,1.9 -5.6,1.4 -5.6,1.4 0,0 -0.2,-3.6 1.9,-5.4 z"
               id="path4736"
               inkscape:connector-curvature="0"
               style="fill:#f9bfc5" />
          </g>
          <g
             id="g4738">
            <path
               class="st0"
               d="m 240.3,75.3 c 0,-2.8 2.8,-5 2.8,-5 0,0 2.7,2.3 2.7,5 0,2.8 -2.8,5 -2.8,5 0,0 -2.8,-2.2 -2.7,-5 z"
               id="path4740"
               inkscape:connector-curvature="0"
               style="fill:#f9bfc5" />
          </g>
          <g
             id="g4742">
            <path
               class="st0"
               d="m 229.7,68.5 c 1.9,-1.1 4.5,-0.1 4.5,-0.1 0,0 -0.5,2.7 -2.4,3.8 -1.9,1.1 -4.5,0.1 -4.5,0.1 0,0 0.4,-2.7 2.4,-3.8 z"
               id="path4744"
               inkscape:connector-curvature="0"
               style="fill:#f9bfc5" />
          </g>
          <g
             id="g4746">
            <path
               class="st0"
               d="m 240.4,47.3 c -2.2,-1.1 -3,-4 -3,-4 0,0 2.8,-1.3 5.1,-0.2 2.2,1.1 3,4 3,4 0,0 -2.8,1.2 -5.1,0.2 z"
               id="path4748"
               inkscape:connector-curvature="0"
               style="fill:#f9bfc5" />
          </g>
          <g
             id="g4750">
            <path
               class="st0"
               d="m 266.5,45 c -2.2,-1 -2.9,-3.9 -2.9,-3.9 0,0 2.8,-1.2 4.9,-0.2 2.2,1 2.9,3.9 2.9,3.9 0,0 -2.7,1.2 -4.9,0.2 z"
               id="path4752"
               inkscape:connector-curvature="0"
               style="fill:#f9bfc5" />
          </g>
          <g
             id="g4754">
            <path
               class="st0"
               d="m 264.2,84.5 c -0.4,-1.9 1.1,-3.8 1.1,-3.8 0,0 2.2,1.1 2.6,3 0.4,1.9 -1.1,3.8 -1.1,3.8 0,0 -2.2,-1.2 -2.6,-3 z"
               id="path4756"
               inkscape:connector-curvature="0"
               style="fill:#f9bfc5" />
          </g>
          <g
             id="g4758">
            <path
               class="st0"
               d="m 236.4,88.1 c 0.8,-2.6 4.1,-4 4.1,-4 0,0 1.9,2.9 1.1,5.6 -0.8,2.6 -4.1,4 -4.1,4 0,0 -1.9,-3 -1.1,-5.6 z"
               id="path4760"
               inkscape:connector-curvature="0"
               style="fill:#f9bfc5" />
          </g>
          <g
             id="g4762">
            <path
               class="st0"
               d="m 256.7,86.4 c -0.9,-2.8 1.1,-6 1.1,-6 0,0 3.5,1.4 4.5,4.3 0.9,2.8 -1.1,6 -1.1,6 0,0 -3.6,-1.5 -4.5,-4.3 z"
               id="path4764"
               inkscape:connector-curvature="0"
               style="fill:#f9bfc5" />
          </g>
          <g
             id="g4766">
            <path
               class="st0"
               d="m 252.7,91.2 c 2.7,-0.8 5.6,1.2 5.6,1.2 0,0 -1.4,3.2 -4.1,4 -2.7,0.8 -5.6,-1.2 -5.6,-1.2 0,0 1.4,-3.2 4.1,-4 z"
               id="path4768"
               inkscape:connector-curvature="0"
               style="fill:#f9bfc5" />
          </g>
          <g
             id="g4770">
            <path
               class="st0"
               d="m 245,95.7 c 3.4,1.4 4.8,5.7 4.8,5.7 0,0 -4.1,2.1 -7.5,0.7 -3.4,-1.4 -4.8,-5.7 -4.8,-5.7 0,0 4.1,-2.1 7.5,-0.7 z"
               id="path4772"
               inkscape:connector-curvature="0"
               style="fill:#f9bfc5" />
          </g>
          <g
             id="g4774">
            <path
               class="st0"
               d="m 223.6,90.5 c 2.8,-0.4 5.4,1.9 5.4,1.9 0,0 -1.8,3 -4.6,3.4 -2.8,0.4 -5.4,-1.9 -5.4,-1.9 0,0 1.8,-3 4.6,-3.4 z"
               id="path4776"
               inkscape:connector-curvature="0"
               style="fill:#f9bfc5" />
          </g>
          <g
             id="g4778">
            <path
               class="st0"
               d="m 235.4,99.9 c 0.6,2.7 -1.5,5.5 -1.5,5.5 0,0 -3.1,-1.6 -3.8,-4.3 -0.6,-2.7 1.5,-5.5 1.5,-5.5 0,0 3.1,1.6 3.8,4.3 z"
               id="path4780"
               inkscape:connector-curvature="0"
               style="fill:#f9bfc5" />
          </g>
          <g
             id="g4782">
            <path
               class="st0"
               d="m 247.6,85.7 c 2.7,-0.8 5.6,1.2 5.6,1.2 0,0 -1.4,3.2 -4.1,4 -2.7,0.8 -5.6,-1.2 -5.6,-1.2 0,0 1.4,-3.3 4.1,-4 z"
               id="path4784"
               inkscape:connector-curvature="0"
               style="fill:#f9bfc5" />
          </g>
          <g
             id="g4786">
            <path
               class="st0"
               d="m 255,73.2 c -1.9,-3.3 -0.2,-7.8 -0.2,-7.8 0,0 4.8,0.8 6.7,4.1 1.9,3.3 0.2,7.8 0.2,7.8 0,0 -4.8,-0.8 -6.7,-4.1 z"
               id="path4788"
               inkscape:connector-curvature="0"
               style="fill:#f9bfc5" />
          </g>
          <g
             id="g4790">
            <path
               class="st0"
               d="m 205.8,83.7 c 3.4,-0.1 6.3,3.1 6.3,3.1 0,0 -2.7,3.4 -6.1,3.5 -3.4,0.1 -6.3,-3.1 -6.3,-3.1 0,0 2.6,-3.4 6.1,-3.5 z"
               id="path4792"
               inkscape:connector-curvature="0"
               style="fill:#f9bfc5" />
          </g>
          <g
             id="g4794">
            <path
               class="st0"
               d="m 194.5,82.3 c 1.8,-1.9 5.2,-1.7 5.2,-1.7 0,0 0.4,3.3 -1.4,5.2 -1.8,1.9 -5.2,1.7 -5.2,1.7 0,0 -0.4,-3.3 1.4,-5.2 z"
               id="path4796"
               inkscape:connector-curvature="0"
               style="fill:#f9bfc5" />
          </g>
          <g
             id="g4798">
            <path
               class="st0"
               d="m 210.8,72.8 c 1.9,3.3 0.2,7.8 0.2,7.8 0,0 -4.8,-0.8 -6.7,-4.1 -1.9,-3.3 -0.2,-7.8 -0.2,-7.8 0,0 4.7,0.8 6.7,4.1 z"
               id="path4800"
               inkscape:connector-curvature="0"
               style="fill:#f9bfc5" />
          </g>
          <g
             id="g4802">
            <path
               class="st0"
               d="m 199,72.5 c -0.7,3 -4.2,4.8 -4.2,4.8 0,0 -2.4,-3.1 -1.7,-6.1 0.7,-3 4.2,-4.8 4.2,-4.8 0,0 2.4,3.1 1.7,6.1 z"
               id="path4804"
               inkscape:connector-curvature="0"
               style="fill:#f9bfc5" />
          </g>
          <g
             id="g4806">
            <path
               class="st0"
               d="m 219.7,65.1 c 2.9,1.9 3.5,6.2 3.5,6.2 0,0 -4.2,1.3 -7.1,-0.6 -2.9,-1.9 -3.5,-6.2 -3.5,-6.2 0,0 4.2,-1.2 7.1,0.6 z"
               id="path4808"
               inkscape:connector-curvature="0"
               style="fill:#f9bfc5" />
          </g>
          <g
             id="g4810">
            <path
               class="st0"
               d="m 203.5,61.5 c 2.3,-1.1 5.2,0.1 5.2,0.1 0,0 -0.7,3.1 -3,4.2 -2.3,1.1 -5.2,-0.1 -5.2,-0.1 0,0 0.7,-3.1 3,-4.2 z"
               id="path4812"
               inkscape:connector-curvature="0"
               style="fill:#f9bfc5" />
          </g>
          <g
             id="g4814">
            <path
               class="st0"
               d="m 193.5,52.3 c 2.2,1.2 2.7,4.3 2.7,4.3 0,0 -3,1.1 -5.2,-0.2 -2.2,-1.2 -2.7,-4.3 -2.7,-4.3 0,0 3,-1.1 5.2,0.2 z"
               id="path4816"
               inkscape:connector-curvature="0"
               style="fill:#f9bfc5" />
          </g>
          <g
             id="g4818">
            <path
               class="st0"
               d="m 216.2,54.7 c 0.5,2.4 -1.5,4.9 -1.5,4.9 0,0 -2.8,-1.5 -3.3,-4 -0.5,-2.4 1.5,-4.9 1.5,-4.9 0,0 2.8,1.6 3.3,4 z"
               id="path4820"
               inkscape:connector-curvature="0"
               style="fill:#f9bfc5" />
          </g>
          <g
             id="g4822">
            <path
               class="st0"
               d="m 213.7,99 c -2.6,1.3 -6,-0.2 -6,-0.2 0,0 0.9,-3.6 3.5,-4.8 2.6,-1.3 6,0.2 6,0.2 0,0 -0.9,3.5 -3.5,4.8 z"
               id="path4824"
               inkscape:connector-curvature="0"
               style="fill:#f9bfc5" />
          </g>
          <g
             id="g4826">
            <path
               class="st0"
               d="m 203.4,94.9 c -2,0.1 -3.6,-2.1 -3.6,-2.1 0,0 1.5,-2.2 3.5,-2.3 2,-0.1 3.6,2.1 3.6,2.1 0,0 -1.5,2.3 -3.5,2.3 z"
               id="path4828"
               inkscape:connector-curvature="0"
               style="fill:#f9bfc5" />
          </g>
          <g
             id="g4830">
            <path
               class="st0"
               d="m 189.8,66 c -2.4,-0.8 -3.5,-3.8 -3.5,-3.8 0,0 2.8,-1.6 5.1,-0.8 2.3,0.8 3.5,3.8 3.5,3.8 0,0 -2.7,1.6 -5.1,0.8 z"
               id="path4832"
               inkscape:connector-curvature="0"
               style="fill:#f9bfc5" />
          </g>
          <g
             id="g4834">
            <path
               class="st0"
               d="m 230.5,66.4 c -3.1,0.1 -5.8,-2.8 -5.8,-2.8 0,0 2.4,-3.1 5.6,-3.2 3.1,-0.1 5.8,2.8 5.8,2.8 0,0 -2.5,3.1 -5.6,3.2 z"
               id="path4836"
               inkscape:connector-curvature="0"
               style="fill:#f9bfc5" />
          </g>
          <g
             id="g4838">
            <path
               class="st0"
               d="m 227.7,44.6 c -2.7,-0.5 -4.3,-3.5 -4.3,-3.5 0,0 2.7,-2.1 5.4,-1.6 2.7,0.5 4.3,3.5 4.3,3.5 0,0 -2.7,2.1 -5.4,1.6 z"
               id="path4840"
               inkscape:connector-curvature="0"
               style="fill:#f9bfc5" />
          </g>
          <g
             id="g4842">
            <path
               class="st0"
               d="m 224.4,99.5 c 1.6,2.6 0.4,6.3 0.4,6.3 0,0 -3.9,-0.6 -5.6,-3.2 -1.6,-2.6 -0.4,-6.3 -0.4,-6.3 0,0 3.9,0.6 5.6,3.2 z"
               id="path4844"
               inkscape:connector-curvature="0"
               style="fill:#f9bfc5" />
          </g>
          <g
             id="g4846">
            <path
               class="st0"
               d="m 223.2,49.1 c -1.5,2.4 -5,2.9 -5,2.9 0,0 -1.1,-3.3 0.3,-5.7 1.5,-2.4 5,-2.9 5,-2.9 0,0 1.1,3.4 -0.3,5.7 z"
               id="path4848"
               inkscape:connector-curvature="0"
               style="fill:#f9bfc5" />
          </g>
          <g
             id="g4850">
            <path
               class="st0"
               d="m 224.6,35.2 c -0.8,2.6 -4.1,4 -4.1,4 0,0 -1.9,-2.9 -1.1,-5.6 0.8,-2.6 4.1,-4 4.1,-4 0,0 1.9,2.9 1.1,5.6 z"
               id="path4852"
               inkscape:connector-curvature="0"
               style="fill:#f9bfc5" />
          </g>
          <g
             id="g4854">
            <path
               class="st0"
               d="m 193.6,49.4 c -2.2,1.1 -5,0 -5,0 0,0 0.6,-3 2.8,-4.1 2.2,-1.1 5,0 5,0 0,0 -0.6,3 -2.8,4.1 z"
               id="path4856"
               inkscape:connector-curvature="0"
               style="fill:#f9bfc5" />
          </g>
          <g
             id="g4858">
            <path
               class="st0"
               d="m 231.9,58 c -1.7,-0.8 -2.3,-3.2 -2.3,-3.2 0,0 2.2,-1 4,-0.1 1.7,0.8 2.3,3.2 2.3,3.2 0,0 -2.3,0.9 -4,0.1 z"
               id="path4860"
               inkscape:connector-curvature="0"
               style="fill:#f9bfc5" />
          </g>
          <g
             id="g4862">
            <path
               class="st0"
               d="m 209.8,29.1 c -0.1,2.8 -2.9,4.9 -2.9,4.9 0,0 -2.7,-2.3 -2.6,-5.1 0.1,-2.8 2.9,-4.9 2.9,-4.9 0,0 2.6,2.3 2.6,5.1 z"
               id="path4864"
               inkscape:connector-curvature="0"
               style="fill:#f9bfc5" />
          </g>
          <g
             id="g4866">
            <path
               class="st0"
               d="m 200.8,35.2 c 2.7,1.9 3,6 3,6 0,0 -4,1 -6.7,-0.8 -2.7,-1.9 -3,-6 -3,-6 0,0 4.1,-1 6.7,0.8 z"
               id="path4868"
               inkscape:connector-curvature="0"
               style="fill:#f9bfc5" />
          </g>
          <g
             id="g4870">
            <path
               class="st0"
               d="m 220.8,26.7 c -1.3,2.4 -4.8,3.2 -4.8,3.2 0,0 -1.3,-3.2 0,-5.7 1.3,-2.4 4.8,-3.2 4.8,-3.2 0,0 1.3,3.3 0,5.7 z"
               id="path4872"
               inkscape:connector-curvature="0"
               style="fill:#f9bfc5" />
          </g>
          <g
             id="g4874">
            <path
               class="st0"
               d="m 237.5,32.8 c -2.8,0.4 -5.4,-1.9 -5.4,-1.9 0,0 1.8,-3 4.6,-3.4 2.8,-0.4 5.4,1.9 5.4,1.9 0,0 -1.9,3 -4.6,3.4 z"
               id="path4876"
               inkscape:connector-curvature="0"
               style="fill:#f9bfc5" />
          </g>
          <g
             id="g4878">
            <path
               class="st0"
               d="m 213.4,37.6 c -2.7,0.8 -5.6,-1.2 -5.6,-1.2 0,0 1.4,-3.2 4.1,-4 2.7,-0.8 5.6,1.2 5.6,1.2 0,0 -1.4,3.2 -4.1,4 z"
               id="path4880"
               inkscape:connector-curvature="0"
               style="fill:#f9bfc5" />
          </g>
          <g
             id="g4882">
            <path
               class="st0"
               d="m 206.1,50 c 1.9,3.3 0.2,7.8 0.2,7.8 0,0 -4.8,-0.8 -6.7,-4.1 -1.9,-3.3 -0.2,-7.8 -0.2,-7.8 0,0 4.7,0.8 6.7,4.1 z"
               id="path4884"
               inkscape:connector-curvature="0"
               style="fill:#f9bfc5" />
          </g>
          <g
             id="g4886">
            <path
               class="st0"
               d="m 275.1,63.9 c 0,-0.1 -0.1,-0.3 -0.1,-0.4 0,-0.2 -0.2,-0.3 -0.3,-0.2 -11.5,2.4 -24.1,1.6 -35,-3 -0.2,-0.1 -0.3,0 -0.4,0.2 0,0.1 -0.1,0.2 -0.1,0.3 -2.4,-5.5 -3.8,-11.3 -3.7,-17.3 0,-0.1 -0.1,-0.3 -0.3,-0.3 -0.1,0 -0.3,0 -0.4,0 -0.1,0 -0.3,0.1 -0.3,0.3 -0.1,13.6 7,26.5 16.5,36 0,0 0,0 0.1,0 0.1,0.1 0.2,0.1 0.4,0 0.1,-0.1 0.2,-0.2 0.3,-0.3 0.1,-0.1 0.2,-0.3 0,-0.4 -5,-5 -9.3,-10.9 -12.3,-17.4 5.4,2.3 11.2,3.5 17,4.1 6.2,0.5 12.3,0.2 18.4,-1.1 0.1,-0.2 0.2,-0.3 0.2,-0.5 z"
               id="path4888"
               inkscape:connector-curvature="0"
               style="fill:#f9bfc5" />
            <path
               class="st0"
               d="m 259.9,63.6 c -0.1,0.1 0,0.3 0.1,0.4 0.1,0.1 0.2,0.1 0.3,0.2 0.1,0 0.1,0 0.1,0 0.1,0 0.2,0 0.3,-0.1 2.9,-5.4 7.6,-9.4 13.4,-11.4 0.1,-0.1 0.3,-0.2 0.2,-0.4 0,-0.1 -0.1,-0.2 -0.1,-0.4 0,-0.1 -0.2,-0.2 -0.4,-0.2 -5.9,2.1 -10.8,6.3 -13.9,11.9 z"
               id="path4890"
               inkscape:connector-curvature="0"
               style="fill:#f9bfc5" />
            <path
               class="st0"
               d="m 242.8,37.2 c 0.1,0 0.1,0 0,0 0.2,0 0.4,0 0.5,0 0.2,0 0.3,-0.2 0.2,-0.3 -0.7,-5.9 0.2,-11.7 2.7,-17.1 0.1,-0.2 0,-0.3 -0.2,-0.4 -0.1,-0.1 -0.2,-0.1 -0.4,-0.2 -0.2,-0.1 -0.3,0 -0.4,0.2 -2.5,5.6 -3.4,11.6 -2.7,17.7 0.1,0 0.2,0.1 0.3,0.1 z"
               id="path4892"
               inkscape:connector-curvature="0"
               style="fill:#f9bfc5" />
            <path
               class="st0"
               d="M 270.1,79.7 C 256,78.8 240.7,79 229,87.8 c -0.1,0.1 -0.1,0.3 0,0.4 0.1,0.1 0.2,0.2 0.3,0.3 0.1,0.1 0.2,0.1 0.3,0.1 0,0 0.1,0 0.1,0 6.4,-4.8 13.8,-6.9 21.5,-7.8 1.9,5.7 5.4,10.1 10.7,13 0,0 0,0 0.1,0 0.1,0.1 0.3,0 0.3,-0.1 0.1,-0.1 0.1,-0.2 0.2,-0.3 0.1,-0.1 0.1,-0.3 -0.1,-0.4 -5,-2.8 -8.4,-7 -10.2,-12.3 5.9,-0.6 12,-0.4 17.9,0 0.2,0 0.3,-0.1 0.3,-0.3 0,-0.1 0,-0.3 0,-0.4 0,-0.1 -0.1,-0.3 -0.3,-0.3 z"
               id="path4894"
               inkscape:connector-curvature="0"
               style="fill:#f9bfc5" />
            <path
               class="st0"
               d="m 224.2,85.8 c -0.1,0 -0.2,-0.1 -0.3,-0.1 -0.1,-0.1 -0.3,-0.1 -0.4,0.1 -0.1,0.1 -0.2,0.2 -0.3,0.3 -0.1,0.1 -0.1,0.3 0.1,0.4 2.8,1.5 5.5,3.5 7.9,5.9 -2.7,4.1 -4.2,8.7 -4.4,13.6 0,0 0,0.1 0,0.1 0,0.1 0.1,0.2 0.3,0.2 0.1,0 0.3,0 0.4,0 0.2,0 0.3,-0.1 0.3,-0.3 0.1,-4.6 1.5,-9 4.1,-12.9 3.1,3.3 5.6,7.3 6.9,11.4 0,0.1 0.2,0.3 0.3,0.2 0.1,0 0.3,-0.1 0.4,-0.1 0.1,0 0.3,-0.2 0.2,-0.3 -2.3,-7.8 -8.5,-14.6 -15.5,-18.5 z m 15.2,18.5 v 0 c 0,0 0,0 0,0 0,0 0,0 0,0 z"
               id="path4896"
               inkscape:connector-curvature="0"
               style="fill:#f9bfc5" />
            <path
               class="st0"
               d="m 225.6,79.8 c 0,0.1 0.1,0.3 0.3,0.3 0.1,0 0.3,0 0.4,0 0.1,0 0.3,-0.1 0.3,-0.3 0.1,-13.6 -7,-26.5 -16.5,-36 0,0 0,0 -0.1,0 -0.1,-0.1 -0.2,-0.1 -0.4,0 -0.1,0.1 -0.2,0.2 -0.3,0.3 -0.1,0.1 -0.2,0.3 0,0.4 5,5 9.3,10.9 12.3,17.4 -5.4,-2.3 -11.2,-3.5 -17,-4.1 -6.2,-0.5 -12.3,-0.2 -18.4,1.1 -0.2,0 -0.3,0.2 -0.2,0.3 0,0.1 0.1,0.3 0.1,0.4 0,0.2 0.2,0.3 0.3,0.2 4.1,-0.9 8.4,-1.3 12.7,-1.3 -2.1,5.6 -6.1,10.2 -11.4,13 -0.1,0.1 -0.2,0.2 -0.1,0.4 0.1,0.1 0.1,0.2 0.2,0.3 0.1,0.1 0.2,0.2 0.4,0.1 5.6,-3 9.9,-7.9 12,-13.9 0,0 0,0 0,0 7.3,0.1 14.6,1.5 21.2,4.3 0.2,0.1 0.3,0 0.4,-0.2 0,-0.1 0.1,-0.2 0.1,-0.3 2.4,5.7 3.7,11.6 3.7,17.6 z"
               id="path4898"
               inkscape:connector-curvature="0"
               style="fill:#f9bfc5" />
            <path
               class="st0"
               d="m 218.2,86 c 0,0 -0.1,0 0,0 -0.2,0 -0.4,0 -0.5,0 -0.2,0 -0.3,0.2 -0.2,0.3 0.7,5.9 -0.2,11.7 -2.7,17.1 -0.1,0.2 0,0.3 0.2,0.4 0.1,0.1 0.2,0.1 0.4,0.2 0.2,0.1 0.3,0 0.4,-0.2 2.5,-5.6 3.4,-11.6 2.7,-17.7 -0.1,0 -0.2,0 -0.3,-0.1 z"
               id="path4900"
               inkscape:connector-curvature="0"
               style="fill:#f9bfc5" />
            <path
               class="st0"
               d="m 190.9,43.5 c 14.1,0.9 29.4,0.7 41.1,-8.1 0.1,-0.1 0.1,-0.3 0,-0.4 -0.1,-0.1 -0.2,-0.2 -0.3,-0.3 -0.1,-0.1 -0.2,-0.1 -0.3,-0.1 0,0 -0.1,0 -0.1,0 -6.4,4.8 -13.8,6.9 -21.5,7.8 -1.9,-5.7 -5.4,-10.1 -10.7,-13 0,0 0,0 -0.1,0 -0.1,-0.1 -0.3,0 -0.3,0.1 -0.1,0.1 -0.1,0.2 -0.2,0.3 -0.1,0.1 -0.1,0.3 0.1,0.4 5,2.8 8.4,7 10.2,12.3 -5.9,0.6 -12,0.4 -17.9,0 -0.2,0 -0.3,0.1 -0.3,0.3 0,0.1 0,0.3 0,0.4 0,0.2 0.1,0.3 0.3,0.3 z"
               id="path4902"
               inkscape:connector-curvature="0"
               style="fill:#f9bfc5" />
            <path
               class="st0"
               d="m 230.6,33 c 3.5,3.2 7.5,5.6 12.2,6.7 4.5,1.1 9.3,1.3 13.9,1 4.3,-0.2 8.6,-0.8 12.8,-1.6 0.2,0 0.3,-0.2 0.2,-0.4 -0.1,-0.1 -0.1,-0.2 -0.2,-0.4 0,0 0,0 0,-0.1 -0.1,-0.1 -0.1,-0.1 -0.3,-0.1 -4.4,0.9 -9,1.5 -13.5,1.6 -5.8,0.2 -12,-0.1 -17.3,-2.6 -3.1,-1.5 -6.1,-3.6 -8.7,-6.3 0,0 0,0 0,0 2.8,-4.1 4.2,-8.7 4.4,-13.6 0,0 0,-0.1 0,-0.1 0,-0.1 -0.1,-0.2 -0.3,-0.2 -0.1,0 -0.3,0 -0.4,0 -0.2,0 -0.3,0.1 -0.3,0.3 -0.1,4.7 -1.5,9 -4.1,12.9 -3.1,-3.4 -5.6,-7.4 -6.9,-11.5 0,-0.1 -0.2,-0.3 -0.3,-0.2 -0.1,0 -0.3,0.1 -0.4,0.1 -0.1,0 -0.3,0.2 -0.2,0.3 1.6,5.5 5.3,10.5 9.4,14.2 z"
               id="path4904"
               inkscape:connector-curvature="0"
               style="fill:#f9bfc5" />
            <path
               class="st0"
               d="m 219.2,83.7 c 0,-0.1 -0.1,-0.2 -0.2,-0.3 -5.9,-2.4 -12.3,-3.2 -18.6,-3.7 -3.7,-0.3 -7.3,-0.3 -10.9,0.5 -0.1,0 -0.3,0.2 -0.2,0.3 0,0.1 0.1,0.3 0.1,0.4 0,0.1 0.2,0.3 0.3,0.2 4.9,-1.1 9.8,-0.7 14.7,-0.1 4.5,0.6 9,1.3 13.3,2.9 -5.3,3.4 -10,7.5 -13.1,13 -0.1,0.1 -0.1,0.3 0.1,0.4 0.1,0.1 0.2,0.1 0.3,0.2 0.1,0.1 0.3,0.1 0.4,-0.1 3.1,-5.7 8.2,-10 13.7,-13.3 0.3,0 0.3,-0.3 0.1,-0.4 z"
               id="path4906"
               inkscape:connector-curvature="0"
               style="fill:#f9bfc5" />
          </g>
          <g
             id="g4908">
            <path
               class="st0"
               d="m 239.1,62.6 c -5,3.2 -6.2,8.9 -6.7,14.4 -0.1,0.7 1.1,0.8 1.2,0.1 0.4,-5 1.4,-10.6 6,-13.5 0.7,-0.4 0.2,-1.4 -0.5,-1 z"
               id="path4910"
               inkscape:connector-curvature="0"
               style="fill:#f9bfc5" />
          </g>
          <g
             id="g4912">
            <path
               class="st0"
               d="m 253.1,40.8 c 1.6,3.7 5.4,5.1 9.1,6 0.5,0.1 0.8,-0.6 0.3,-0.7 -3.5,-0.9 -7.1,-2.1 -8.6,-5.6 -0.3,-0.5 -1,-0.1 -0.8,0.3 z"
               id="path4914"
               inkscape:connector-curvature="0"
               style="fill:#f9bfc5" />
          </g>
        </g>
      </g>
    </g>
  </g>
</svg>
