<svg width="49" height="40" viewBox="0 0 49 40" fill="none" xmlns="http://www.w3.org/2000/svg">
<path d="M36.4982 38.2449C36.4982 39.2144 35.7034 40.0004 34.7213 40.0004H1.7775C0.795345 40.0004 0.000549316 39.2144 0.000549316 38.2449V16.6461C0.000549316 15.6774 0.795345 14.8914 1.7775 14.8914H34.7213C35.7034 14.8914 36.4982 15.6767 36.4982 16.6461V38.2449Z" fill="#3C444F"/>
<path d="M47.23 11.2553L16.1898 0.106134C15.264 -0.222195 14.254 0.245157 13.9327 1.15842L12.6593 4.78187L11.9274 6.86943L11.3222 8.57763L10.4923 10.9366L9.39447 14.0542H10.643L11.5996 11.3352L19.175 14.0572H35.5451C36.528 14.0572 37.3228 14.8433 37.3228 15.8127V20.5772L43.7734 22.894L40.0541 33.4634C39.9966 33.6073 39.8854 33.7226 39.7445 33.7844C39.6037 33.8462 39.4444 33.8497 39.301 33.7939L37.325 33.0833V34.3448L38.9088 34.9135C39.8338 35.2463 40.8438 34.7745 41.1651 33.8612L44.8814 23.2933L45.7121 20.9336L46.3151 19.2195L47.047 17.1327L48.3204 13.5092C48.6439 12.5974 48.1565 11.5881 47.23 11.2553ZM47.2139 13.1129L45.9404 16.7326L13.768 5.17602L15.0415 1.55626C15.0989 1.41205 15.2101 1.29646 15.3512 1.23447C15.4922 1.17247 15.6518 1.16906 15.7953 1.22497L46.8392 12.3756C46.9847 12.4244 47.1056 12.529 47.1756 12.6669C47.2457 12.8047 47.2594 12.9649 47.2139 13.1129Z" fill="#3C444F"/>
<path d="M2.48882 36.3816H2.92793V34.4101H2.47125V33.905H3.47097V36.3816H3.87934V36.8533H2.48882V36.3816Z" fill="white"/>
<path d="M4.1939 34.759C4.19829 34.1364 4.77938 33.8672 5.31803 33.8672C5.90352 33.8672 6.53511 34.1075 6.53511 34.8056C6.53511 35.5547 5.9767 35.6981 5.36414 35.6981C5.12262 35.6981 4.73108 35.761 4.73108 36.0812V36.3334H6.54316V36.851H4.18146V36.0768C4.18146 35.3987 4.78963 35.1968 5.36414 35.1968C5.58369 35.1968 5.98914 35.1591 5.98914 34.8189C5.98914 34.4987 5.70225 34.3471 5.33047 34.3471C5.04358 34.3471 4.74499 34.495 4.74499 34.759H4.1939Z" fill="white"/>
<path d="M7.56978 35.5685V35.1137H7.99059C8.28334 35.1137 8.59877 35.0339 8.60243 34.7603C8.60243 34.5924 8.46923 34.3691 8.00304 34.3691C7.74542 34.3691 7.39486 34.4622 7.39486 34.7314H6.84597C6.84597 34.0962 7.47025 33.8647 8.0067 33.8647C8.55632 33.8647 9.14839 34.1339 9.15205 34.7603C9.15175 34.8872 9.11292 35.011 9.04081 35.1149C8.96871 35.2188 8.86678 35.2979 8.7488 35.3415C9.0269 35.4339 9.22304 35.7112 9.22304 35.9597C9.22304 36.6792 8.55266 36.8944 7.99059 36.8944C7.42853 36.8944 6.80718 36.6578 6.79987 35.9885H7.35315C7.35315 36.2917 7.75713 36.3967 7.99425 36.3967C8.27382 36.3967 8.64414 36.2791 8.64414 35.9634C8.64414 35.7867 8.54827 35.5678 8.02353 35.5678L7.56978 35.5685Z" fill="white"/>
<path d="M11.7519 33.9099V35.7527H12.0937V36.2918H11.7519V36.8516H11.2104V36.2918H9.65298L9.60321 35.7283L10.9154 33.9099H11.7519ZM11.2104 35.7527V34.3898L10.2238 35.7527H11.2104Z" fill="white"/>
<path d="M15.464 34.432H13.8897V34.9496H14.4562C15.0761 34.9496 15.6272 35.2062 15.6272 35.8962C15.6272 36.5654 15.0731 36.8848 14.4862 36.8848C13.8444 36.8848 13.2947 36.6534 13.2903 35.9634H13.8327C13.8327 36.2873 14.1986 36.3716 14.4738 36.3716C14.7489 36.3716 15.0783 36.2452 15.0783 35.8962C15.0819 35.5634 14.7533 35.4665 14.4533 35.4665H13.3526V33.9099H15.464V34.432Z" fill="white"/>
<path d="M16.423 34.8106V35.2543C16.5525 35.0525 16.8687 34.943 17.0977 34.943C17.6832 34.943 18.3016 35.1915 18.3016 35.9236C18.3016 36.5758 17.6803 36.8997 17.0934 36.8997C16.5064 36.8997 15.877 36.5758 15.877 35.9154V34.8151C15.877 34.1584 16.4771 33.8538 17.0765 33.8538C17.7096 33.8538 18.2716 34.1067 18.2716 34.7249H17.722C17.722 34.4646 17.3978 34.3337 17.0853 34.3337C16.756 34.3292 16.4266 34.5104 16.4266 34.8306L16.423 34.8106ZM17.7557 35.9199C17.7557 35.596 17.4629 35.4237 17.097 35.4237C16.7311 35.4237 16.4186 35.5923 16.4222 35.9199C16.4259 36.2475 16.7347 36.3998 17.0926 36.3998C17.4395 36.4013 17.7557 36.2452 17.7557 35.9214V35.9199Z" fill="white"/>
<path d="M18.6079 36.8511L19.7986 34.4352H18.3788V33.905H20.5195L20.5481 34.2008L19.241 36.8511H18.6079Z" fill="white"/>
<path d="M21.0625 35.3317C20.9538 35.2793 20.8619 35.1971 20.7972 35.0945C20.7325 34.9919 20.6976 34.8729 20.6966 34.7512C20.6966 34.1596 21.2375 33.855 21.8676 33.855C22.4977 33.855 23.0656 34.1633 23.0656 34.7549C23.0649 34.8747 23.0288 34.9916 22.9621 35.0906C22.8954 35.1897 22.801 35.2664 22.6909 35.311C22.8181 35.367 22.9269 35.4584 23.0047 35.5746C23.0824 35.6907 23.1259 35.8268 23.13 35.9669C23.1432 36.6532 22.5182 36.9283 21.8683 36.9223C21.2353 36.9179 20.6022 36.6569 20.6154 35.9669C20.6207 35.8286 20.6659 35.6948 20.7453 35.582C20.8247 35.4692 20.935 35.3822 21.0625 35.3317ZM21.1913 35.9714C21.1877 36.1991 21.4292 36.4151 21.8749 36.4151C22.3206 36.4151 22.5621 36.2043 22.5577 35.9714C22.5533 35.6815 22.2416 35.5506 21.8749 35.5506C21.5331 35.5506 21.1957 35.6815 21.1913 35.9714ZM21.8749 35.1469C22.2123 35.1469 22.4831 34.9908 22.4911 34.735C22.4992 34.4791 22.2416 34.3179 21.8705 34.3179C21.4577 34.3179 21.2499 34.5331 21.2579 34.735C21.2667 34.9908 21.5543 35.1469 21.8749 35.1469Z" fill="white"/>
<path d="M24.2371 36.3816H24.6762V34.4101H24.2217V33.905H25.22V36.3816H25.6232V36.8533H24.2371V36.3816Z" fill="white"/>
<path d="M25.9433 34.759C25.9433 34.1364 26.5288 33.8672 27.0674 33.8672C27.6529 33.8672 28.283 34.1075 28.283 34.8056C28.283 35.5547 27.7254 35.6981 27.1121 35.6981C26.8705 35.6981 26.479 35.761 26.479 36.0812V36.3334H28.2903V36.851H25.9301V36.0768C25.9301 35.3987 26.539 35.1968 27.1135 35.1968C27.3331 35.1968 27.7378 35.1591 27.7378 34.8189C27.7378 34.4987 27.4502 34.3471 27.0755 34.3471C26.7886 34.3471 26.49 34.495 26.49 34.759H25.9433Z" fill="white"/>
<path d="M29.3186 35.5685V35.1137H29.7386C30.0314 35.1137 30.3468 35.0339 30.3512 34.7603C30.3512 34.5924 30.2173 34.3691 29.7511 34.3691C29.4927 34.3691 29.1436 34.4622 29.1436 34.7314H28.5933C28.5933 34.0962 29.2183 33.8647 29.7555 33.8647C30.3051 33.8647 30.8972 34.1339 30.9008 34.7603C30.9004 34.8872 30.8614 35.011 30.7892 35.115C30.7169 35.2189 30.6149 35.2979 30.4968 35.3415C30.7757 35.4339 30.9711 35.7112 30.9711 35.9597C30.9711 36.6792 30.3007 36.8944 29.7386 36.8944C29.1766 36.8944 28.5523 36.6585 28.5479 35.9893H29.1019C29.1019 36.2925 29.5052 36.3975 29.743 36.3975C30.0219 36.3975 30.3922 36.2799 30.3922 35.9641C30.3922 35.7874 30.297 35.5685 29.7716 35.5685H29.3186Z" fill="white"/>
<path d="M33.5007 33.9099V35.7527H33.8418V36.2918H33.5007V36.8516H32.9591V36.2918H31.4018L31.3513 35.7283L32.6635 33.9099H33.5007ZM32.9591 35.7527V34.3898L31.9726 35.7527H32.9591Z" fill="white"/>
<path d="M2.70296 25.5029V26.6218C2.70031 26.7361 2.71137 26.8503 2.73589 26.9619C2.88227 27.5653 3.33089 27.9018 3.9903 27.9025C5.04856 27.9025 6.10658 27.9025 7.16436 27.9025V25.5029H2.70296Z" fill="#E9D319"/>
<path d="M7.58539 24.1441H10.0269V24.5693H7.58539V27.9022H10.7404C10.8597 27.905 10.9788 27.8936 11.0954 27.8681C11.705 27.7114 12.0285 27.2588 12.0285 26.5629C12.0285 25.1668 12.0285 23.7702 12.0285 22.373H7.58539V24.1441Z" fill="#E9D319"/>
<path d="M9.2741 21.9462V18.4766H5.30817V21.9455L9.2741 21.9462Z" fill="#E9D319"/>
<path d="M7.16384 22.373H2.69952C2.69952 23.2747 2.69952 24.1762 2.69952 25.0773H7.16384V22.373Z" fill="#E9D319"/>
<path d="M4.88729 18.4787H4.04053C3.89746 18.4741 3.75438 18.4875 3.61459 18.5186C3.02911 18.6732 2.7027 19.1213 2.70197 19.7631C2.70197 20.4908 2.70197 21.2184 2.70197 21.9461H4.88729V18.4787Z" fill="#E9D319"/>
<path d="M12.0278 21.946C12.0278 21.2353 12.0278 20.5247 12.0278 19.814C12.032 19.6754 12.0187 19.5367 11.9883 19.4014C11.8361 18.8098 11.3896 18.4793 10.7375 18.4778C10.3899 18.4778 10.0423 18.4778 9.69537 18.4778V21.9474L12.0278 21.946Z" fill="#E9D319"/>
<path d="M18.6752 26.0575C18.2265 26.6306 17.6505 26.8976 17.0182 26.8976C15.3986 26.8976 14.7136 25.4512 14.707 23.9811C14.7004 22.511 15.4425 21.001 17.0182 21.001C17.6103 21.001 18.1709 21.2916 18.6188 21.8654L18.0706 22.5539C17.9472 22.3896 17.7882 22.2561 17.6057 22.1636C17.4233 22.071 17.2223 22.0219 17.0182 22.02C15.9658 22.02 15.5106 23.0382 15.5172 23.984C15.5238 24.9298 15.9409 25.8985 17.0182 25.8985C17.2319 25.8912 17.4413 25.8359 17.6311 25.7367C17.821 25.6374 17.9866 25.4967 18.116 25.3247L18.6752 26.0575Z" fill="white"/>
<path d="M22.0367 25.702H19.7607L19.383 26.7691H18.4924L20.4486 21.1121H21.3451L23.3007 26.7691H22.4034L22.0367 25.702ZM20.8965 22.3004L20.0871 24.7089H21.7067L20.8965 22.3004Z" fill="white"/>
<path d="M27.5338 26.7691H26.5561L25.2856 24.8783H24.4944V26.7691H23.6718V21.1047C24.3634 21.1047 25.055 21.1121 25.7459 21.1121C26.7742 21.1203 27.3157 22.0091 27.3157 22.9867C27.3157 23.7624 27.042 24.5463 26.2136 24.7615L27.5309 26.693L27.5338 26.7691ZM24.4944 22.1067V23.917H25.7459C26.2699 23.917 26.4939 23.4644 26.4939 23.0119C26.4939 22.5593 26.2633 22.1067 25.7459 22.1067H24.4944Z" fill="white"/>
<path d="M31.7047 23.8918C31.7237 25.3219 31.0504 26.7683 29.5245 26.7683H27.8112V21.1121H29.5238C31.0197 21.1121 31.69 22.4941 31.7047 23.8918ZM28.6272 25.7405H29.5245C30.5147 25.7405 30.907 24.8028 30.8887 23.8822C30.8696 23.0007 30.4715 22.12 29.5245 22.12H28.6272V25.7405Z" fill="white"/>
</svg>
